<?xml version="1.0" encoding="utf-8"?>
<!-- Generator: Adobe Illustrator 16.0.0, SVG Export Plug-In . SVG Version: 6.00 Build 0)  -->
<!DOCTYPE svg PUBLIC "-//W3C//DTD SVG 1.1//EN" "http://www.w3.org/Graphics/SVG/1.1/DTD/svg11.dtd">
<svg version="1.1" id="Calque_1" xmlns="http://www.w3.org/2000/svg" xmlns:xlink="http://www.w3.org/1999/xlink" x="0px" y="0px"
	 width="1281px" height="1281px" viewBox="0 0 1281 881" enable-background="new 0 0 1281 881" xml:space="preserve">
<g>
	<path fill-rule="evenodd" clip-rule="evenodd" fill="#EFDA4F" d="M996.749,691.789c4.653,6.023,5.309,12.567,4.539,20.153
		c-0.999,9.851-2.122,19.868-0.515,29.848c0.585,3.628-0.685,5.082-4.381,3.381c-3.419-1.573-4.939-0.407-5.153,3.354
		c-0.754,13.271-2.438,26.439-4.223,39.609c-0.566,4.183-1.724,4.419-4.836,2.479c-1.804-1.125-3.743-2.031-5.765-3.113
		c-0.98,2.586-0.673,4.945-0.189,7.102c1.489,6.651,0.171,12.822-2.383,18.941c-1.037,2.486-2.014,4.317-4.957,2.279
		c-1.896-1.313-2.798-0.901-3.281,1.448c-1.762,8.581-5.485,16.743-5.658,25.653c-0.05,2.537-1.125,3.169-3.336,2.991
		c-1.159-0.094-2.332-0.014-3.497-0.014c-267.772,0-535.544,0.001-803.316-0.008c-3.33,0-6.665-0.252-9.989-0.137
		c-2.991,0.104-4.183-0.313-3.104-3.878c3.17-10.476,5.91-21.082,8.802-31.643c0.165-0.604,0.188-1.247,0.278-1.874
		c-8.256-1.132-7.783-1.08-6.858-9.559c2.306-21.151,12.987-38.834,22.782-56.918c1.822-3.362,3.961-6.559,5.718-9.953
		c4.169-8.05,9.17-15.449,16.193-21.304c2.423-2.021,3.492-4.646,4.408-7.576c4.876-15.601,7.859-31.542,8.958-47.837
		c0.144-2.132,1.239-3.791,2.241-5.474c6.756-11.351,11.401-24.282,24.448-30.969c-0.284-0.409-0.569-0.817-0.854-1.227
		c-4.791-0.843-9.555-2.081-14.38-2.405c-3.981-0.268-3.323-1.948-2.287-4.381c2.02-4.739,3.893-9.544,5.997-14.245
		c5.096-11.39,9.693-22.995,12.567-35.125c2.144-9.045,6.218-16.338,13.347-22.485c7.518-6.481,7.146-6.913-1.496-12.052
		c-6.44-3.83-5.999-3.686-3.658-10.817c4.912-14.967,13.646-27.66,22.941-40.033c2.226-2.962,2.843-5.533,0.887-8.58
		c-2.493-3.887-2.21-7.453-0.009-11.549c3.615-6.728,6.722-13.74,9.803-20.739c1.26-2.862,3.747-4.206,5.993-5.794
		c17.437-12.335,33.999-25.692,48.789-41.158c1.13-1.182,2.247-2.377,3.807-4.029c-6.986-2.393-14.026-0.073-20.891-2.68
		c10.828-9.489,21.299-18.904,32.528-27.439c0.132-0.101,0.3-0.159,0.419-0.271c2.788-2.597,8.163-4.307,8.133-7.438
		c-0.027-2.892-5.734-3.502-8.961-4.979c-3.061-1.402-1.911-2.324-0.247-3.676c1.292-1.048,2.501-2.208,3.838-3.194
		c11.719-8.651,20.848-19.409,26.922-32.715c0.673-1.476,1.763-2.85,2.926-4c13.729-13.56,26.533-28.141,42.7-39.025
		c2.801-1.885,3.026-3.394,0.161-5.52c-5.211-3.868-10.168-8.077-15.39-11.93c-1.805-1.333-1.907-2.239-0.601-3.925
		c3.67-4.735,7.233-9.555,10.785-14.381c1.267-1.721,3.09-2.457,4.959-3.169c16.716-6.365,31.816-15.854,47.403-24.412
		c3.148-1.728,3.818-2.981,0.721-5.521c-2.111-1.732-4.726-3.054-6.355-6.037c19.426-5.115,38.502-10.579,59.284-11.795
		c-3.556-6.319-6.531-12.029-9.923-17.478c-1.975-3.171-1.238-3.798,2.159-4.781c22.997-6.652,46.719-9.777,70.083-14.616
		c3.281-0.68,4.465-2.024,3.905-4.916c-1.853-9.563,2.658-14.63,10.638-19.642c12.722-7.992,26.54-13.17,40.424-17.966
		c8.936-3.087,18.919-3.143,28.429-4.573c0.418-0.062,0.811-0.289,1.836-0.67c-5.759-4.374-11.136-8.456-17.057-12.952
		c5.937-3.95,11.464-7.806,17.186-11.348c2.252-1.393,4.915-0.188,7.263,0.316c17.065,3.663,34.34,5.839,51.686,7.546
		c0.984,0.097,1.988,0.013,3.744,0.013c-4.525-6.237-9.756-11.16-15.58-17.55c9.108,2.206,16.759,4.145,24.45,5.903
		c15.262,3.489,27.539,13,40.984,20.155c14.909,7.933,28.374,18.015,41.448,28.571c9.105,7.351,15.563,17.314,23.621,25.723
		c19.817,20.68,34.828,44.959,51.099,68.276c8.392,12.028,19.471,20.856,31.537,28.591c19.559,12.538,37.75,26.605,51.871,45.268
		c3.995,5.279,7.295,11.137,10.454,16.978c3.137,5.8,7.428,10.483,11.926,15.216c19.236,20.236,42.776,34.864,65.514,50.484
		c6.209,4.266,13.596,7.043,20.756,9.64c7.763,2.815,12.821,8.213,17.858,14.368c10.496,12.827,18.808,27.004,27.136,41.21
		c-1.951,3.188-4.476,3.518-7.624,1.723c-2.452-1.399-5.297-2.183-7.587-3.766c-9.602-6.64-18.247-2.902-26.846,2.103
		c-1.58,0.919-3.059,2.008-4.584,3.02c-7.181,4.764-11.208,4.6-17.736-1.15c-2.574-2.27-4.94-4.05-8.285-1.646
		c-1.886,2.173-1.137,4.467-0.313,6.762c5.083,8.704,12.376,15.122,20.771,20.486c9.903,6.329,16.989,14.686,19.476,26.61
		c0.715,3.427,0.129,6.592,0.072,9.884c-0.022,3.441,0.021,6.88-0.007,10.315c0.015,0.663-0.013,1.329-0.096,1.991
		c-1.817,14.471-1.812,14.479-14.271,22.195c-1.846,1.144-3.715,2.283-5.299,3.742c-15.362,14.146-34.265,22.288-52.942,30.561
		c-14.355,6.358-29.69,8.31-45.31,5.119c-4.876-0.995-9.43-3.265-14.316-4.357c-2.122-0.175-4.241-0.127-6.364-0.031
		c-4.187,0.287-8.238-1.067-12.403-0.984c-2.079-0.127-4.162-0.132-6.237,0.002c-1.065,0.323-2.533,0.242-2.754,1.65
		c-0.183,1.164,1.07,1.54,1.894,2.036c0.997,0.603,2.07,1.109,3.218,1.297c7.382,1.207,14.474,3.633,21.791,5.131
		c3.447,0.2,6.901-0.12,10.338,0.245c14.395,5.526,28.435,5.488,43.063-0.314c12.468-4.946,25.779-7.751,38.309-12.732
		c7.25-2.882,14.045-1.183,20.676,1.738c4.025,1.773,5.137,1.407,6.176-2.941c0.983-4.118-0.216-7.895-1.539-11.684
		c-2.454-7.028-1.331-11.99,4.69-16.172c7.874-5.467,12.169-12.458,11.768-22.202c-0.122-2.973,1.103-5.879,0.873-8.905
		c0.078-3.269-0.122-6.54,0.159-9.802c1.033-4.613,1.806-9.351,5.777-12.626c1.234-1.018,2.264-2.432,4.174-2.102
		c1.613,13.743,1.652,27.492,0.297,41.262c-0.202,2.051-1.051,3.809-1.656,5.69c-5.672,17.632-16.242,32.602-26.094,47.953
		c-1.589,2.477-2.347,4.927-2.375,7.896c-0.11,11.806,0.231,23.578,1.646,35.305c0.145,1.194,0.428,2.422-0.568,3.264
		c-4.613,3.899-4.435,8.977-3.534,14.194c0.338,1.957-0.422,2.642-2.098,2.004c-3.84-1.464-3.335,1.238-3.206,3.316
		c0.202,3.242-0.549,4.885-4.162,3.314c-1.034-0.45-2.269-0.441-3.411-0.646c-5.406-0.969-8.628,1.034-9.273,6.298
		c-0.346,2.824-1.188,3.467-3.74,2.308c-1.341-0.609-2.888-0.748-4.281-1.263c-2.338-0.864-3.854-0.461-5.241,1.902
		c-2.747,4.676-7.831,5.776-12.538,3.108c-2.311-1.311-4.616-2.632-6.938-3.926c-0.277-0.154-0.635-0.165-0.962-0.241
		c-0.114,0.289-0.333,0.587-0.31,0.864c0.167,1.943,1.656,4.42,0.11,5.678c-1.532,1.247-3.589-0.78-5.383-1.434
		c-2.334-0.849-4.594-1.898-6.887-2.861c-9.747-2.789-19.515-5.44-27.164-12.788c-10.41-10-22.754-17.227-35.333-24.07
		c-2.487-1.354-4.921-2.792-7.299-4.32c-1.887-1.213-3.411-2.717-3.039-5.275c0.945-2.915,2.805-5.312,4.665-7.634
		c2.179-2.72,1.731-4.591-0.952-6.632c-7.455-5.672-15.3-10.769-23.771-14.685c-31.258-14.45-63.738-18.94-97.345-10.121
		c-19.513,5.121-35.341,15.922-46.446,33.213c-13.894,21.634-14.494,60.627,3.617,81.45c8.676,9.977,19.705,16.309,31.59,21.331
		c11.835,5.003,24.183,8.522,36.634,11.674c12.911,3.268,25.987,5.97,38.351,11.157c3.7,1.553,7.235,3.353,10.712,5.348
		c10.425,5.982,15.334,15.114,14.901,26.904c-0.429,11.684-5.892,20.479-16.218,26.365c-13.43,7.657-27.942,8.211-42.698,6.86
		c-24.917-2.28-46.272-12.917-65.384-28.603c-5.467-4.487-5.751-4.341-10.269,1.053c-5.988,7.148-11.837,14.416-17.977,21.438
		c-3.072,3.513-3.004,4.735,0.642,7.765c24.632,20.467,52.857,32.576,84.68,36.22c20.953,2.4,41.524,1.098,61.569-6.104
		c29.263-10.515,49.387-36.422,49.179-68.839c-0.066-10.292-1.102-20.267-5.251-29.77c-6.309-14.444-17.502-24.061-31.044-31.316
		c-14.661-7.854-30.511-12.423-46.495-16.568c-12.254-3.178-24.646-5.856-36.414-10.685c-4.325-1.773-8.562-3.742-12.514-6.231
		c-19.6-12.341-19.007-40.041,1.072-51.635c11.794-6.809,24.6-7.727,37.767-6.438c20.821,2.038,39.003,10.75,56.061,22.267
		c5.268,3.557,5.158,3.522,9.184-1.69c2.321-3.006,3.854-6.681,7.23-8.825c2.408-0.771,3.698,1.021,5.061,2.37
		c8.729,8.64,17.44,17.3,26.052,26.058c3.281,3.337,5.528,7.462,8.065,11.345c7.082,10.836,14.289,21.567,22.021,31.969
		C992.048,680.392,995.597,685.555,996.749,691.789z"/>
	<path fill-rule="evenodd" clip-rule="evenodd" fill="#B5A53C" d="M942.822,555.086c4.386,0.317,8.773,0.635,13.16,0.952
		c2.288,0.651,4.574,0.682,6.858-0.015c8.207,3.325,16.818,5.45,25.521,6.329c5.14,0.52,10.52-1.249,15.783-2.043
		c20.334-3.064,37.071-14.644,54.751-23.754c8.117-4.185,13.871-12.597,22.378-16.353c9.833-4.342,10.954-12.495,11.676-21.318
		c0.782-3.942,0.626-7.891,0.084-11.843c1.533-13.946-4.883-24.292-15.508-32.151c-8.536-6.313-17.748-11.721-23.368-21.185
		c-0.497-0.837-0.873-1.745-1.305-2.621c-0.729-2.689-0.741-5.376,0.013-8.062c3.854-2.432,6.916-2.256,10.295,1.482
		c5.175,5.726,9.523,5.827,15.901,1.645c2.763-1.811,5.702-3.364,8.393-5.271c11.033-7.818,20.985-2.871,30.717,2.72
		c3.137,1.802,5.763,2.31,8.731,0.214c3.801,2.625,4.347,5.778,3.016,10.307c-3.131,10.652-10.92,18.047-17.292,26.447
		c-2.209,2.911-4.669,5.631-7.015,8.438c-5.058,3.329-7.45,8.332-8.794,13.995c-0.785,3.613-0.631,7.233-0.077,10.856
		c-0.655,6.573-0.688,13.292-2.182,19.671c-0.997,4.262-4.69,7.529-8.353,10.234c-8.677,6.414-9.451,8.355-6.145,18.138
		c1.418,4.194,1.848,8.269,0.818,12.582c-0.962,4.03-3.825,5.027-7.208,2.866c-5.551-3.548-11.887-5.248-18.164-3.005
		c-19.041,6.811-38.371,12.648-57.783,18.263c-2.462,0.712-4.767,1.026-7.245,0.333c-6.194-1.734-12.688-2.365-18.626-5.044
		c-3.949-0.844-7.908-0.648-11.869-0.102c-6.69-1.8-13.303-3.898-20.192-4.917c-3.364-0.498-6.085-2.411-8.836-4.867
		c1.326-1.723,3.277-2.166,5.002-2.953C938.244,555.714,940.531,555.646,942.822,555.086z"/>
	<path fill-rule="evenodd" clip-rule="evenodd" fill="#B5A53C" d="M932.87,596.9c0.104,2.373,1.886,3.292,3.64,4.3
		c8.898,5.111,17.948,9.984,26.599,15.487c5.124,3.26,10.085,7.071,14.265,11.451c6.517,6.83,15.04,9.362,23.334,12.555
		c1.55,0.597,3.172,0.954,4.3,2.298c-0.192,4.81,0.167,9.591,0.458,14.395c0.746,12.333-2.431,23.792-8.716,34.404
		c-7.788-15.514-19.731-28.289-28.462-43.172c-5.779-9.851-13.07-18.388-21.379-26.166c-6.436-6.026-12.628-12.312-18.929-18.48
		C927.992,600.495,929.452,598.021,932.87,596.9z"/>
	<path fill-rule="evenodd" clip-rule="evenodd" fill="#323330" d="M932.87,596.9c-1.631,2.357-3.26,4.714-4.891,7.071
		c-3.127,4.306-6.445,8.49-9.31,12.965c-1.708,2.671-2.969,2.617-5.351,0.863c-12.819-9.438-26.62-17.045-42.061-21.279
		c-15.333-4.204-30.798-5.72-46.194-0.422c-16.872,5.807-24.757,19.499-21.227,36.212c1.761,8.332,7.244,13.641,14.273,17.662
		c11.089,6.346,23.277,9.758,35.519,12.903c17.717,4.553,35.57,8.65,52.243,16.469c14.894,6.984,28.116,16.044,35.916,31.145
		c20.552,39.784,0.328,88.902-43.208,104.363c-30.684,10.896-61.579,8.9-92.243-0.307c-21-6.305-39.601-17.159-56.422-31.174
		c-2.786-2.322-3.533-3.899-0.755-7.031c7.732-8.719,15.15-17.724,22.494-26.775c1.972-2.43,3.104-2.336,5.408-0.375
		c16.166,13.757,33.919,24.654,54.98,29.188c14.303,3.078,28.694,3.978,43.063,0.467c18.51-4.522,28.655-17.058,27.653-33.869
		c-0.508-8.505-4.066-15.308-11.108-20.229c-11.287-7.888-24.311-11.459-37.366-14.793c-19.496-4.978-39.173-9.347-57.467-18.091
		c-17.648-8.435-31.848-20.315-36.989-40.095c-11.335-43.6,8.415-83.5,55.008-95.494c45.083-11.605,86.68-1.589,123.891,26.47
		c2.148,1.619,2.277,2.723,0.712,4.752C937.107,590.52,935.047,593.754,932.87,596.9z"/>
	<path fill-rule="evenodd" clip-rule="evenodd" fill="#323330" d="M712.928,649.749c0,27.829,0.109,55.659-0.041,83.488
		c-0.092,16.858-3.305,33.108-11.299,48.122c-12.308,23.115-32.391,35.324-57.596,39.206c-26.994,4.157-52.796,0.523-76.109-14.861
		c-9.396-6.2-17.31-14.011-24.292-22.828c-1.812-2.289-2.287-3.702,0.161-6.098c8.447-8.274,16.665-16.789,24.79-25.382
		c2.37-2.506,3.58-2.756,5.968,0.183c9.582,11.794,20.556,21.82,35.84,25.775c7.359,1.904,14.833,2.454,22.274,1.046
		c18.227-3.453,29.601-16.66,32.257-37.05c0.732-5.62,1.069-11.261,1.067-16.937c-0.026-54.326,0.053-108.652-0.136-162.978
		c-0.017-4.727,1.386-5.705,5.783-5.602c12.325,0.291,24.664,0.234,36.991,0.018c3.505-0.062,4.439,0.889,4.422,4.408
		C712.865,590.09,712.928,619.919,712.928,649.749z"/>
	<path fill-rule="evenodd" clip-rule="evenodd" fill="#B5A53C" d="M540.13,261.087c1.029-4.8,2.081-9.599,3.167-14.38
		c1.611-7.094,7.625-10.292,11.46-15.466c0.053,5.877-1.476,11.321-2.878,16.788c-0.718,1.622-0.693,3.247-0.018,4.874
		c2.081,9.92,4.966,19.628,9.476,28.688c5.097,10.239,10.557,20.461,21.655,25.628c3.656,1.703,5.335,4.516,5.777,8.061
		c1.292,10.372,5.561,19.299,12.25,27.219c1.636,1.938,3.956,4.121,1.781,6.889c-1.953,2.487-8.752,3.562-10.829,1.925
		c-10.033-7.912-21.129-13.745-33.415-17.263c-3.338-0.956-5.683-3.4-8.317-5.361c-2.062-1.536-1.516-3.845-0.681-5.955
		c1.42-3.585,0.744-6.281-2.29-9.078c-5.081-4.683-4.972-10.958,0.201-15.555c3.375-3,3.566-5.496,1.514-9.391
		c-2.579-4.897-5.678-9.343-9.056-13.656c-0.729-1.728-0.702-3.458-0.018-5.191c0.037-0.983,0.073-1.967,0.11-2.95
		C540.763,264.985,540.613,263.039,540.13,261.087z"/>
	<path fill-rule="evenodd" clip-rule="evenodd" fill="#B5A53C" d="M890.804,324.133c2.062-0.011,4.126-0.021,6.19-0.032
		c2.289,0.559,4.573,0.696,6.85-0.062c3.857-1.352,7.852-2.218,10.219-6.338c0.709-1.234,3.271-2.088,5.275-1.42
		c0.484,1.135-0.155,1.734-0.583,2.425c-3.86,6.227-3.352,8.395,3.691,10.831c6.692,2.315,9.307,8.137,12.789,13.268
		c1.154,1.7,1.222,3.317-1.833,2.542c-2.265-0.575-4.518-0.993-6.329-2.658c-2.85-2.619-6.31-4.274-9.705-6.043
		c-2.768-1.443-5.387-2.083-8.541-0.852c-6.302,2.459-12.093,0.523-17.356-3.069c-4.779-3.26-9.975-5.176-15.658-5.924
		c-0.783-0.988-3.378,0.707-2.989-2.017c2.722-4.386,4.145-4.489,11.097-0.798C886.195,324.884,888.498,324.583,890.804,324.133z"/>
	<path fill-rule="evenodd" clip-rule="evenodd" fill="#B98E33" d="M1093.034,487.042c1.294,3.958,1.466,7.907-0.084,11.843
		C1092.979,494.938,1093.006,490.99,1093.034,487.042z"/>
	<path fill-rule="evenodd" clip-rule="evenodd" fill="#BA8C33" d="M959.985,567.793c3.968-1.298,7.928-1.496,11.87,0.103
		C967.898,567.861,963.941,567.827,959.985,567.793z"/>
	<path fill-rule="evenodd" clip-rule="evenodd" fill="#BA8B32" d="M1096.741,493.856c-1.341-3.629-1.471-7.25,0.077-10.857
		C1096.792,486.618,1096.767,490.238,1096.741,493.856z"/>
	<path fill-rule="evenodd" clip-rule="evenodd" fill="#BB8C33" d="M1052.866,423.022c-0.005,2.687-0.009,5.374-0.013,8.062
		C1051.36,428.395,1051.368,425.708,1052.866,423.022z"/>
	<path fill-rule="evenodd" clip-rule="evenodd" fill="#BC8D33" d="M890.804,324.133c-2.322,1.224-4.622,1.401-6.884-0.146
		C886.214,324.035,888.509,324.084,890.804,324.133z"/>
	<path fill-rule="evenodd" clip-rule="evenodd" fill="#B78B32" d="M903.844,324.038c-2.271,1.443-4.557,1.366-6.851,0.062
		C899.277,324.08,901.561,324.06,903.844,324.038z"/>
	<path fill-rule="evenodd" clip-rule="evenodd" fill="#C19135" d="M942.822,555.086c-2.295,1.29-4.582,1.327-6.864-0.03
		C938.246,555.066,940.534,555.076,942.822,555.086z"/>
	<path fill-rule="evenodd" clip-rule="evenodd" fill="#B18C33" d="M962.841,556.023c-2.283,1.399-4.57,1.388-6.859,0.014
		C958.27,556.033,960.556,556.028,962.841,556.023z"/>
	<path fill-rule="evenodd" clip-rule="evenodd" fill="#B88C33" d="M872.823,324.784c0.488,1.426,2.312,0.877,2.99,2.019
		c-1.43-0.132-3.098,1.08-4.181-0.696C871.545,325.963,872.404,325.239,872.823,324.784z"/>
	<path fill-rule="evenodd" clip-rule="evenodd" fill="#B98D33" d="M540.13,261.087c1.25,1.967,1.363,3.913-0.108,5.829
		C540.058,264.972,540.094,263.029,540.13,261.087z"/>
	<path fill-rule="evenodd" clip-rule="evenodd" fill="#C19335" d="M539.912,269.864c0.006,1.729,0.012,3.459,0.018,5.191
		C538.405,273.331,538.54,271.6,539.912,269.864z"/>
	<path fill-rule="evenodd" clip-rule="evenodd" fill="#B68A32" d="M551.861,252.903c-1.365-1.63-1.372-3.255,0.018-4.875
		C551.873,249.654,551.867,251.279,551.861,252.903z"/>
</g>
</svg>
