<?xml version="1.0" standalone="no"?>
<!DOCTYPE svg PUBLIC "-//W3C//DTD SVG 20010904//EN"
 "http://www.w3.org/TR/2001/REC-SVG-20010904/DTD/svg10.dtd">
<svg version="1.0" xmlns="http://www.w3.org/2000/svg"
 width="1281.000000pt" height="1281.000000pt" viewBox="0 0 1281.000000 1281.000000"
 preserveAspectRatio="xMidYMid meet">
<metadata>
Created by potrace 1.14, written by Peter Selinger 2001-2017
</metadata>
<g transform="translate(0.000000,1281.000000) scale(0.100000,-0.100000)"
fill="#000000" stroke="none">
<path d="M7102 10250 c7 -10 14 -17 16 -15 7 6 112 -123 112 -137 0 -8 -3 -9
-8 -3 -4 6 -27 11 -52 12 -25 1 -72 4 -105 8 -58 5 -77 8 -147 21 -18 3 -49 7
-68 9 -19 3 -48 7 -65 10 -16 3 -39 6 -50 8 -11 1 -26 6 -33 10 -6 5 -29 8
-51 9 -30 0 -55 -11 -124 -58 -98 -66 -100 -49 17 -139 35 -27 64 -51 63 -52
-2 -2 -70 -10 -147 -19 -72 -8 -163 -28 -185 -42 -5 -4 -15 -7 -22 -8 -37 -6
-275 -111 -284 -126 -3 -5 -9 -9 -13 -8 -4 1 -36 -17 -70 -40 -70 -48 -90 -81
-91 -155 0 -27 -4 -55 -7 -61 -7 -11 -102 -34 -158 -40 -14 -1 -36 -5 -50 -9
-14 -3 -32 -8 -40 -10 -8 -2 -15 -4 -15 -5 0 -1 -16 -3 -35 -4 -28 -3 -133
-23 -265 -51 -41 -8 -179 -47 -187 -51 -11 -7 -10 -38 1 -49 15 -15 92 -158
87 -162 -2 -2 -25 -6 -52 -9 -27 -2 -60 -6 -74 -9 -14 -2 -45 -7 -70 -10 -24
-4 -48 -9 -53 -12 -4 -2 -24 -7 -45 -9 -20 -3 -46 -8 -57 -11 -24 -8 -29 -10
-79 -22 -22 -5 -44 -8 -48 -5 -4 3 -8 1 -8 -4 0 -5 -6 -9 -12 -10 -47 -6 -78
-16 -78 -26 0 -13 35 -46 49 -46 4 0 13 -11 19 -24 10 -22 5 -26 -116 -94
-131 -73 -323 -174 -332 -174 -3 0 -15 -4 -28 -9 -13 -5 -27 -9 -31 -9 -8 0
-58 -55 -81 -90 -8 -13 -25 -34 -37 -48 -35 -38 -37 -57 -8 -86 14 -14 27 -25
28 -23 4 2 59 -40 109 -83 33 -29 30 -36 -42 -90 -25 -19 -52 -41 -61 -49 -9
-9 -33 -29 -53 -46 -57 -46 -280 -273 -290 -295 -5 -11 -13 -20 -18 -20 -5 0
-7 -3 -4 -8 5 -9 -48 -95 -95 -154 -43 -52 -75 -84 -127 -126 -76 -62 -84 -71
-79 -85 3 -8 20 -17 38 -21 18 -3 38 -11 46 -17 16 -14 17 -45 1 -52 -15 -5
-134 -94 -159 -117 -8 -8 -31 -27 -50 -42 -19 -14 -52 -44 -75 -65 -22 -21
-56 -51 -74 -65 -49 -38 -35 -45 90 -49 47 -1 70 -6 70 -14 0 -14 -186 -196
-245 -240 -22 -17 -51 -40 -65 -53 -32 -29 -121 -97 -193 -146 -45 -31 -62
-51 -86 -100 -16 -34 -29 -63 -29 -66 0 -3 -16 -36 -36 -74 -40 -76 -43 -100
-21 -142 8 -16 15 -36 15 -45 0 -13 -90 -152 -109 -169 -6 -5 -24 -36 -58
-100 -10 -19 -21 -37 -24 -40 -3 -3 -18 -36 -33 -75 -15 -38 -31 -77 -35 -85
-16 -35 -5 -55 52 -92 31 -21 57 -45 57 -54 0 -8 -28 -43 -61 -76 -57 -57
-108 -142 -116 -193 -2 -11 -7 -31 -12 -45 -5 -14 -17 -52 -27 -85 -9 -33 -21
-64 -26 -69 -4 -6 -8 -16 -8 -23 0 -8 -7 -30 -17 -51 -9 -20 -17 -39 -18 -42
-5 -13 -27 -65 -46 -107 -12 -26 -27 -64 -35 -85 -15 -43 -15 -43 51 -53 22
-3 51 -8 65 -11 14 -3 31 -6 38 -6 18 -2 15 -26 -5 -33 -27 -9 -74 -54 -115
-113 -21 -29 -38 -54 -38 -56 0 -2 -20 -39 -44 -82 -35 -63 -45 -93 -51 -147
-3 -37 -8 -76 -10 -85 -1 -9 -6 -37 -9 -62 -7 -50 -13 -84 -16 -87 -2 -2 -3
-11 -5 -20 -3 -28 -15 -71 -42 -155 -18 -57 -33 -85 -56 -104 -46 -39 -109
-123 -158 -212 -24 -42 -56 -99 -71 -127 -73 -130 -138 -268 -166 -351 -27
-81 -34 -114 -46 -227 -4 -30 16 -47 53 -47 14 0 19 -5 16 -18 -7 -38 -18 -78
-23 -87 -4 -5 -7 -16 -8 -25 -2 -17 -6 -29 -29 -110 -9 -30 -18 -63 -20 -73
-2 -10 -7 -27 -10 -37 -3 -10 0 -20 9 -23 20 -8 8215 -7 8220 1 2 4 7 33 10
65 4 33 11 69 15 80 5 12 10 27 11 32 1 6 6 20 11 33 5 12 8 26 7 30 -1 4 2
20 7 35 5 21 12 26 24 22 37 -15 47 -9 66 38 19 47 27 154 15 198 -11 38 1 44
48 20 21 -11 43 -16 49 -13 10 7 19 52 28 147 3 28 7 64 9 80 2 17 8 68 11
115 11 132 12 132 57 120 17 -5 34 -7 38 -5 4 3 6 40 3 82 -5 91 -5 82 2 153
14 145 2 280 -26 280 -14 0 -11 22 9 60 48 91 64 169 64 312 l0 137 24 -9 c13
-5 38 -17 54 -25 26 -13 33 -14 44 -2 10 9 11 19 4 31 -5 10 -8 20 -5 22 5 5
59 -16 67 -27 3 -3 19 -11 36 -16 38 -13 74 2 106 43 14 17 26 23 37 18 9 -3
31 -10 49 -14 27 -7 34 -5 44 14 6 11 10 21 8 21 -2 0 0 10 4 23 9 26 34 30
116 21 33 -4 35 -2 40 31 4 29 9 35 28 33 24 -3 25 2 22 72 -1 28 5 49 19 67
23 29 25 47 16 178 -11 164 -11 190 0 194 6 3 6 5 -1 5 -18 2 -6 67 23 119 14
26 29 49 32 52 13 10 81 120 81 130 0 5 5 10 12 10 6 0 8 3 5 6 -4 4 2 19 12
33 29 41 87 164 112 238 19 58 23 92 25 223 1 85 -1 176 -5 201 -7 42 -5 50
18 77 73 83 171 209 171 218 0 3 9 19 21 35 11 16 17 29 13 29 -3 0 -1 6 5 13
6 8 8 17 4 20 -3 4 -2 7 4 7 15 0 7 72 -9 84 -15 12 -43 54 -71 106 -23 41
-164 258 -182 280 -107 123 -180 184 -232 194 -61 12 -330 167 -341 197 -2 5
-8 9 -14 9 -8 0 -93 55 -108 70 -3 3 -27 21 -55 40 -27 19 -55 39 -62 45 -7 5
-18 15 -25 20 -82 63 -129 105 -220 197 -60 59 -108 111 -108 116 0 5 -9 19
-20 32 -11 13 -20 29 -20 37 0 7 -4 13 -8 13 -4 0 -14 16 -21 35 -7 19 -17 35
-22 35 -5 0 -9 5 -9 11 0 6 -10 24 -22 39 -13 15 -34 43 -48 61 -41 55 -251
259 -266 259 -4 0 -19 10 -34 23 -15 12 -37 29 -50 37 -12 8 -28 20 -34 25 -6
6 -51 37 -101 69 -96 63 -169 120 -222 175 -50 50 -103 117 -103 129 0 6 -4
12 -8 14 -5 2 -28 32 -52 68 -24 36 -47 67 -52 68 -4 2 -8 9 -8 15 0 7 -9 23
-20 37 -11 14 -57 77 -103 141 -45 63 -89 123 -97 131 -8 9 -24 28 -35 43 -22
30 -65 80 -117 137 -18 19 -55 62 -83 94 -58 70 -168 180 -210 212 -89 66
-173 128 -191 139 -85 55 -255 153 -263 153 -6 0 -11 3 -11 8 0 4 -10 12 -23
18 -12 6 -57 30 -99 53 -70 38 -180 82 -196 79 -4 -1 -14 1 -22 5 -21 8 -187
47 -200 47 -6 0 -6 -7 2 -20z"/>
</g>
</svg>
