<svg viewBox="0 0 75 46" fill="none" xmlns="http://www.w3.org/2000/svg" class="logo">
    <path d="M53.5633 15.2825H56.2092C56.326 15.1652 56.4397 15.0417 56.5564 14.9213C57.8405 13.6421 59.5675 12.3779 61.3634 12.0106C62.3509 11.8083 63.3689 11.8083 64.3565 12.0106C64.8305 12.1074 65.2938 12.2516 65.7393 12.4411C66.178 12.6282 66.5979 12.857 66.9934 13.1244C67.3844 13.391 67.7501 13.6932 68.0859 14.0274C68.419 14.3643 68.7197 14.7321 68.9838 15.126C69.2509 15.523 69.4785 15.9454 69.6632 16.3872C70.0482 17.3014 70.2465 18.2841 70.2465 19.2768C70.2465 20.2696 70.0482 21.2523 69.6632 22.1665C69.1018 23.4918 68.1729 24.6266 66.9874 25.4354C66.5919 25.7028 66.172 25.9316 65.7333 26.1186C65.2904 26.3139 64.8291 26.4642 64.3565 26.5671C63.3689 26.7694 62.3509 26.7694 61.3634 26.5671C60.8893 26.4704 60.426 26.3262 59.9805 26.1367C59.1038 25.7627 58.307 25.222 57.6339 24.5444C57.3 24.2072 56.9993 23.8382 56.736 23.4427C56.4697 23.0458 56.2412 22.6246 56.0536 22.1845C55.8746 21.7551 55.7363 21.3097 55.6405 20.8541L50.9863 21.7902C51.1463 22.5615 51.3799 23.3155 51.6837 24.0417C52.2918 25.4928 53.1741 26.8115 54.2817 27.9247C55.988 29.6397 58.164 30.8042 60.5317 31.2696C62.8993 31.735 65.3512 31.48 67.574 30.5374C68.2956 30.2292 68.9862 29.8522 69.6363 29.4116C70.2809 28.9749 70.8823 28.477 71.4322 27.9247C71.987 27.3719 72.4881 26.7672 72.9287 26.1186C73.8135 24.7969 74.4336 23.3144 74.7545 21.7541C75.0818 20.1332 75.0818 18.4626 74.7545 16.8417C74.5932 16.0557 74.3556 15.2875 74.0451 14.5481C73.1273 12.3721 71.6022 10.51 69.6543 9.18725C68.9996 8.74453 68.304 8.36652 67.577 8.05849C65.3147 7.10348 62.8188 6.85594 60.4145 7.34812C59.7159 7.49092 59.0316 7.69746 58.3703 7.96518L58.3912 5.00331H68.3223L70.8425 0.232422H53.6711L53.5633 15.2825Z"
          fill="white"></path>
    <path d="M20.705 10.6712C19.6016 9.55729 18.2933 8.6699 16.8529 8.05849L16.6164 7.96217L22.7254 0.232422H3.06367L5.59284 5.00331H12.893L7.56231 11.7518L12.3213 11.8722C13.5229 11.905 14.6984 12.232 15.7459 12.8248C16.7934 13.4176 17.6815 14.2583 18.333 15.274C18.9846 16.2898 19.3801 17.4501 19.4851 18.6542C19.5902 19.8584 19.4018 21.0701 18.9361 22.1845C18.5664 23.0645 18.0331 23.8655 17.3647 24.5444C16.1581 25.7663 14.5667 26.5286 12.8629 26.7006C11.1591 26.8727 9.44878 26.4439 8.02469 25.4876C6.60061 24.5313 5.55129 23.107 5.05635 21.4584C4.5614 19.8098 4.65159 18.0395 5.31149 16.4504L0.959518 14.5451C0.178691 16.3992 -0.133157 18.4191 0.0518461 20.424C0.23685 22.429 0.912941 24.3566 2.01969 26.0346C3.12644 27.7126 4.62936 29.0887 6.39413 30.0399C8.1589 30.9911 10.1305 31.4878 12.1328 31.4855C14.5311 31.4864 16.8758 30.7718 18.8701 29.4321C20.8645 28.0925 22.4188 26.188 23.3366 23.9597C24.2543 21.7313 24.4941 19.2793 24.0257 16.9139C23.5572 14.5485 22.4016 12.3759 20.705 10.6712Z"
          fill="white"></path>
    <path d="M46.3499 10.6712C44.1251 8.42929 41.1184 7.14855 37.9692 7.1013L43.3838 0.232422H37.3287L28.4542 11.4929C28.3225 11.6494 28.1968 11.812 28.083 11.9625L27.8945 12.2033L27.64 12.5404L27.661 12.5585C27.2489 13.1882 26.8942 13.8541 26.6014 14.5481C25.7452 16.5864 25.4562 18.8205 25.7656 21.0113C26.0751 23.202 26.9711 25.2669 28.3579 26.9848C29.7447 28.7028 31.5699 30.009 33.6383 30.7638C35.7066 31.5186 37.9402 31.6934 40.0997 31.2696C42.2593 30.8457 44.2636 29.8392 45.898 28.3578C47.5324 26.8763 48.7353 24.9758 49.3781 22.8595C50.0208 20.7433 50.0792 18.4911 49.5468 16.3441C49.0144 14.1971 47.9114 12.2362 46.3559 10.6712H46.3499ZM44.578 22.1845C44.1712 23.1502 43.5656 24.0182 42.8011 24.7315C42.0366 25.4448 41.1305 25.9871 40.1425 26.3228C39.1545 26.6585 38.107 26.7799 37.069 26.679C36.031 26.5782 35.026 26.2573 34.1201 25.7377C33.2143 25.218 32.4282 24.5112 31.8136 23.664C31.1991 22.8167 30.7699 21.8481 30.5544 20.822C30.3389 19.7959 30.3421 18.7355 30.5635 17.7107C30.785 16.6858 31.2198 15.7198 31.8394 14.8762L32.1207 14.521C32.2554 14.3585 32.4021 14.1959 32.5547 14.0454C33.7668 12.8358 35.3582 12.0859 37.0581 11.9232C38.758 11.7606 40.4615 12.1952 41.8787 13.1531C43.2959 14.1111 44.3393 15.5332 44.8315 17.1776C45.3236 18.822 45.234 20.587 44.578 22.1725V22.1845Z"
          fill="white"></path>
    <path d="M10.8817 37.0751H16.8679L16.2692 38.237H14.4135V45.6537H13.1983V38.237H10.8817V37.0751Z"
          fill="white"></path>
    <path d="M23.2162 43.4474H19.6245L18.7266 45.6537H17.4635L20.9984 37.0751H21.8544L25.3862 45.6537H24.1172L23.2162 43.4474ZM20.1064 42.2825H22.7523L21.4353 39.0949L20.1064 42.2825Z"
          fill="white"></path>
    <path d="M28.7385 44.4798H32.5158V45.6447H27.5173V37.0751H28.7385V44.4798Z" fill="white"></path>
    <path d="M39.0947 40.4433L38.6637 41.6082H36.2901V44.4798H40.0674V45.6447H35.0719V37.0751H39.9477L39.3491 38.237H36.2901V40.4433H39.0947Z"
          fill="white"></path>
    <path d="M44.0901 39.3627V45.6537H42.872V37.0751H43.725L48.8432 43.3721V37.0751H50.0614V45.6537H49.2084L44.0901 39.3627Z"
          fill="white"></path>
    <path d="M52.3152 37.0751H58.3014L57.7028 38.237H55.8471V45.6537H54.6289V38.237H52.3152V37.0751Z"
          fill="white"></path>
    <path d="M60.651 43.5076C60.8947 43.8387 61.2098 44.1102 61.5726 44.3015C61.9355 44.4928 62.3367 44.599 62.7462 44.6122C63.5393 44.6122 64.2427 44.0975 64.2427 43.3239C64.2427 42.0116 62.4469 41.8671 61.3035 41.1176C60.9745 40.9259 60.7012 40.6507 60.5111 40.3195C60.321 39.9883 60.2206 39.6127 60.22 39.2303C60.22 37.9811 61.3185 36.9517 62.803 36.9517C63.6448 36.9523 64.4584 37.2567 65.0958 37.8096L64.3744 38.7126C63.9561 38.3345 63.4163 38.1208 62.8539 38.1106C62.1446 38.1106 61.4382 38.5139 61.4382 39.2604C61.4382 40.353 63.255 40.5848 64.3505 41.3193C64.69 41.5202 64.9712 41.8072 65.166 42.1516C65.3608 42.4959 65.4625 42.8856 65.4609 43.2818C65.4609 44.7868 64.3026 45.7681 62.815 45.7681C62.2411 45.7712 61.6738 45.644 61.1555 45.3959C60.6373 45.1478 60.1814 44.7853 59.8219 44.3353L60.651 43.5076Z"
          fill="white"></path>
</svg>