<svg xmlns="http://www.w3.org/2000/svg" xmlns:xlink="http://www.w3.org/1999/xlink" viewBox="0 0 434.84 189.6">
    <defs>
        <style>
            .cls-1,.cls-2{fill:none;}.cls-1{stroke:#fff;stroke-linecap:round;stroke-linejoin:round;stroke-width:5px;}.cls-2{stroke-miterlimit:10;stroke-width:3px;stroke:url(#Dégradé_sans_nom_52);}
        </style>
        <linearGradient id="Dégradé_sans_nom_52" y1="94.8" x2="144.89" y2="94.8" gradientUnits="userSpaceOnUse">
            <stop offset="0" stop-color="#de1e7e"/>
            <stop offset="1" stop-color="#f29e19"/>
        </linearGradient>
    </defs>
    <title>Fichier 12</title>
    <g id="Calque_2" data-name="Calque 2">
        <g id="Calque_1-2" data-name="Calque 1">
            <line class="cls-1" x1="47.51" y1="121.15" x2="67.13" y2="68.44"/>
            <polyline class="cls-1" points="66.36 99.22 81.75 99.22 92.53 120.77"/>
            <line class="cls-1" x1="276.72" y1="121.15" x2="296.34" y2="68.44"/>
            <polyline class="cls-1" points="295.57 99.22 310.96 99.22 321.74 120.77"/>
            <line class="cls-1" x1="387.33" y1="121.15" x2="406.95" y2="68.44"/>
            <polyline class="cls-1" points="406.18 99.22 421.57 99.22 432.34 120.77"/>
            <line class="cls-1" x1="158.11" y1="121.15" x2="177.74" y2="68.44"/>
            <polyline class="cls-1" points="176.97 99.22 192.36 99.22 203.13 120.77"/>
            <line class="cls-1" x1="110.91" y1="68.63" x2="110.91" y2="120.96"/>
            <polyline class="cls-1" points="139.73 70.17 117.84 93.15 139.73 119.42"/>
            <line class="cls-1" x1="340.12" y1="68.63" x2="340.12" y2="120.96"/>
            <polyline class="cls-1" points="368.94 70.17 347.05 93.15 368.94 119.42"/>
            <polyline class="cls-1" points="274.4 69.44 255.16 120.23 239.77 95.6 225.92 120.23 207.45 69.44"/>
            <polygon class="cls-2"
                     points="142.77 139.5 94.8 187.48 2.12 94.8 94.8 2.12 141.68 49.01 140.27 50.42 94.8 4.95 4.95 94.8 94.8 184.65 141.35 138.09 142.77 139.5 142.77 139.5"/>
        </g>
    </g>
</svg>