<svg width="129" height="24" viewBox="0 0 129 24" fill="none" xmlns="http://www.w3.org/2000/svg"><g clip-path="url(#clip0_32_39630)"><path fill-rule="evenodd" clip-rule="evenodd" d="M8.50157 0C4.82169 7.16029 1.20304 15.6974 0.160278 23.5614H4.11635C4.39229 21.5724 4.82169 19.5531 5.37355 17.5028H15.6472C16.199 19.5531 16.6284 21.5724 16.9044 23.5614H20.8604C19.8177 15.6974 16.199 7.16029 12.5191 0H8.50157ZM123.993 0.530268V18.7062C122.5 16.5417 120.896 13.5085 119.315 10.5186L119.315 10.5185L119.315 10.5184C116.807 5.77334 114.355 1.13725 112.493 0.255051H108.568V23.8165H112.524L112.493 6.16046C113.484 7.83373 114.517 9.82672 115.573 11.8636L115.573 11.864L115.573 11.8644C118.34 17.2027 121.263 22.842 123.993 23.8165H127.949V0.255051L123.993 0.530268ZM103.353 13.78H93.1099V20.1446H104.886L104.641 23.8165H89.1541V0.255051H104.518L104.242 3.92694H93.1099V10.1386H103.629L103.353 13.78ZM76.6108 0.102125C74.4028 0.102125 72.2253 0.224358 69.5267 0.836296V23.8165H73.4828V16.044C74.2803 16.1055 75.1694 16.136 76.1814 16.136C80.9963 16.136 85.5654 13.0761 85.5654 7.9356C85.5654 2.30515 80.9655 0.102125 76.6108 0.102125ZM44.6856 12.0052C44.6856 5.7933 48.427 0.102125 55.4803 0.102125C62.4417 0.102125 66.2445 5.7933 66.2445 12.0052C66.2445 18.2473 62.4417 24 55.4803 24C48.427 24 44.6856 18.2473 44.6856 12.0052ZM6.50874 13.8309C7.64348 10.4954 9.05414 7.19076 10.526 4.06982C11.9982 7.19076 13.4089 10.4954 14.5436 13.8309H6.50874ZM76.1812 12.1889C75.2 12.1889 74.2802 12.1579 73.4826 12.0969V4.38593C74.6789 4.1717 75.8133 4.04921 76.6106 4.04921C79.2785 4.04921 81.4868 5.21209 81.4868 7.93558C81.4868 10.4446 79.4015 12.1889 76.1812 12.1889ZM55.4803 20.1446C51.0948 20.1446 49.0403 16.4419 49.0403 12.0356C49.0403 7.59881 51.0643 3.92693 55.4803 3.92693C59.835 3.92693 61.8898 7.59881 61.8898 12.0356C61.8898 16.3807 59.835 20.1446 55.4803 20.1446Z" fill="#FFFFFF"></path><path class="logoNavPart_xAnimation__14juj" fill-rule="evenodd" clip-rule="evenodd" d="M39.5002 0.240005C39.5002 1.36579 38.8331 2.84311 37.3455 4.75135C36.2229 6.19134 34.795 7.67936 33.2404 9.23335C31.6858 7.67937 30.2579 6.19135 29.1353 4.75135C27.6477 2.84312 26.9807 1.36579 26.9807 0.240011H23.04C23.04 2.75133 24.4299 5.12479 26.0275 7.17416C27.2887 8.79189 28.8586 10.4256 30.4423 12.0087C28.8604 13.5901 27.2925 15.2219 26.0328 16.8379C24.4351 18.8872 23.0453 21.2607 23.0453 23.772H26.986C26.986 22.6462 27.653 21.1689 29.1406 19.2607C30.262 17.8223 31.6879 16.336 33.2404 14.784C34.793 16.336 36.2189 17.8223 37.3402 19.2607C38.8278 21.1689 39.4949 22.6462 39.4949 23.772H43.4355C43.4355 21.2607 42.0457 18.8872 40.448 16.8379C39.1883 15.222 37.6205 13.5901 36.0385 12.0087C37.6223 10.4256 39.1922 8.79188 40.4533 7.17416C42.051 5.12478 43.4408 2.75133 43.4408 0.240005H39.5002Z" fill="#FFFFFF"></path><path class="logoNavPart_xAnimation__14juj" fill-rule="evenodd" clip-rule="evenodd" d="M23.04 23.76C23.04 26.2713 24.4299 28.6448 26.0275 30.6942C27.2887 32.3119 28.8586 33.9456 30.4423 35.5287C28.8604 37.1101 27.2925 38.742 26.0328 40.3579C24.4351 42.4072 23.0453 44.7807 23.0453 47.292H26.986C26.986 46.1662 27.653 44.6889 29.1406 42.7807C30.262 41.3423 31.6879 39.856 33.2404 38.304C34.793 39.856 36.2189 41.3423 37.3402 42.7807C38.8278 44.6889 39.4949 46.1662 39.4949 47.292H43.4355C43.4355 44.7807 42.0457 42.4072 40.448 40.3579C39.1883 38.7419 37.6205 37.1101 36.0385 35.5287C37.6223 33.9456 39.1922 32.3119 40.4533 30.6942C42.051 28.6448 43.4408 26.2713 43.4408 23.76H39.5002C39.5002 24.8858 38.8331 26.3631 37.3455 28.2714C36.2229 29.7113 34.795 31.1994 33.2404 32.7533C31.6858 31.1994 30.2579 29.7113 29.1353 28.2713C27.6477 26.3631 26.9807 24.8858 26.9807 23.76H23.04Z" fill="#FFFFFF"></path></g><defs><clipPath id="clip0_32_39630"><rect width="128.16" height="24" fill="white"></rect></clipPath></defs></svg>