<svg xmlns="http://www.w3.org/2000/svg" xmlns:xlink="http://www.w3.org/1999/xlink" version="1.1" id="Layer_1" x="0px" y="0px" style="enable-background:new 0 0 1000 728.9;" xml:space="preserve" viewBox="192.8 192.8 614.3 343.3">
<style type="text/css">
	.st0{fill:#FFFFFF;}
</style>
<g>
	<g>
		<path class="st0" d="M192.8,535v-95h34.9c6.6,0,12.1,0.6,16.8,1.8c4.6,1.2,8.4,2.9,11.3,5.2c2.9,2.2,5,4.9,6.4,8.1    c1.3,3.2,2,6.7,2,10.6c0,2.1-0.3,4.2-0.9,6.2c-0.6,2-1.6,3.8-2.9,5.6c-1.3,1.7-3,3.3-5,4.7c-2,1.4-4.5,2.6-7.4,3.7    c6.3,1.5,10.9,4,13.9,7.4c3,3.4,4.5,7.8,4.5,13.1c0,4-0.8,7.8-2.3,11.3c-1.6,3.5-3.9,6.5-6.9,9.1c-3,2.6-6.7,4.6-11.2,6.1    c-4.4,1.5-9.5,2.2-15.2,2.2H192.8z M214.9,480h11.5c2.4,0,4.6-0.2,6.6-0.5c2-0.3,3.6-1,5-1.8c1.4-0.9,2.4-2.1,3.1-3.6    c0.7-1.5,1.1-3.4,1.1-5.7c0-2.3-0.3-4.1-0.8-5.6c-0.6-1.5-1.4-2.7-2.6-3.6c-1.2-0.9-2.7-1.6-4.5-2c-1.8-0.4-3.9-0.6-6.4-0.6h-12.9    V480z M214.9,494.7v23.7h15.5c2.9,0,5.3-0.4,7.1-1.1c1.8-0.7,3.3-1.7,4.3-2.9c1-1.2,1.8-2.5,2.2-4c0.4-1.5,0.6-3,0.6-4.5    c0-1.7-0.2-3.3-0.7-4.7c-0.5-1.4-1.2-2.6-2.3-3.5c-1.1-1-2.6-1.7-4.4-2.2c-1.8-0.5-4.1-0.8-6.9-0.8H214.9z"/>
		<path class="st0" d="M339.5,440V457h-39v22.2h29.9v16.3h-29.9v22.6h39V535h-61.2v-95H339.5z"/>
		<path class="st0" d="M438.2,487.5c0,6.9-1.2,13.2-3.6,19c-2.4,5.8-5.7,10.8-10,15.1c-4.3,4.2-9.5,7.5-15.5,9.9    c-6.1,2.4-12.8,3.6-20.2,3.6H352v-95h36.9c7.4,0,14.1,1.2,20.2,3.6c6.1,2.4,11.2,5.7,15.5,9.9c4.3,4.2,7.6,9.2,10,15    C437,474.4,438.2,480.7,438.2,487.5z M415.6,487.5c0-4.7-0.6-8.9-1.8-12.7c-1.2-3.8-3-7-5.2-9.6c-2.3-2.6-5.1-4.7-8.4-6.1    c-3.3-1.4-7.1-2.1-11.3-2.1h-14.7v61.1h14.7c4.2,0,8-0.7,11.3-2.1c3.3-1.4,6.1-3.4,8.4-6.1c2.3-2.6,4-5.8,5.2-9.6    C415,496.5,415.6,492.2,415.6,487.5z"/>
		<path class="st0" d="M470.8,499.9V535h-22v-95h30.9c6.9,0,12.7,0.7,17.6,2.1c4.8,1.4,8.8,3.4,11.9,5.9c3.1,2.5,5.3,5.5,6.7,8.9    c1.4,3.4,2.1,7.2,2.1,11.2c0,3.1-0.4,6-1.2,8.7c-0.8,2.7-2.1,5.3-3.7,7.6c-1.6,2.3-3.6,4.4-6,6.2c-2.4,1.8-5.1,3.3-8.2,4.5    c1.5,0.7,2.9,1.7,4.1,2.7c1.3,1.1,2.4,2.4,3.4,4l20.2,33.1h-19.9c-3.7,0-6.3-1.4-8-4.2l-15.8-27.6c-0.7-1.2-1.5-2.1-2.4-2.6    c-0.9-0.5-2.2-0.8-3.9-0.8H470.8z M470.8,484.7h8.9c3,0,5.6-0.4,7.7-1.1c2.1-0.8,3.8-1.8,5.2-3.2c1.3-1.3,2.3-2.9,2.9-4.7    c0.6-1.8,0.9-3.7,0.9-5.8c0-4.2-1.4-7.4-4.1-9.8c-2.7-2.3-6.9-3.5-12.6-3.5h-8.9V484.7z"/>
		<path class="st0" d="M626,487.5c0,6.9-1.2,13.3-3.6,19.2c-2.4,5.9-5.7,11.1-10,15.4c-4.3,4.4-9.5,7.8-15.5,10.3    c-6.1,2.5-12.8,3.7-20.2,3.7c-7.4,0-14.1-1.2-20.2-3.7c-6.1-2.5-11.3-5.9-15.6-10.3c-4.3-4.4-7.7-9.5-10-15.4    c-2.4-5.9-3.6-12.3-3.6-19.2c0-6.9,1.2-13.3,3.6-19.2c2.4-5.9,5.7-11,10-15.4c4.3-4.3,9.5-7.8,15.6-10.2    c6.1-2.5,12.8-3.7,20.2-3.7c7.4,0,14.1,1.2,20.2,3.7c6.1,2.5,11.2,5.9,15.5,10.3c4.3,4.3,7.6,9.5,10,15.4    C624.8,474.3,626,480.7,626,487.5z M603.4,487.5c0-4.7-0.6-8.9-1.8-12.7c-1.2-3.8-3-6.9-5.2-9.6c-2.3-2.6-5.1-4.6-8.4-6    c-3.3-1.4-7.1-2.1-11.3-2.1c-4.3,0-8.1,0.7-11.4,2.1c-3.3,1.4-6.1,3.4-8.4,6c-2.3,2.6-4,5.8-5.2,9.6c-1.2,3.8-1.8,8-1.8,12.7    c0,4.7,0.6,9,1.8,12.7c1.2,3.8,3,6.9,5.2,9.6c2.3,2.6,5.1,4.6,8.4,6c3.3,1.4,7.1,2.1,11.4,2.1c4.2,0,8-0.7,11.3-2.1    c3.3-1.4,6.1-3.4,8.4-6c2.3-2.6,4-5.8,5.2-9.6C602.8,496.5,603.4,492.2,603.4,487.5z"/>
		<path class="st0" d="M700.3,510.5c0.5,0,1,0.1,1.6,0.3c0.5,0.2,1,0.5,1.5,1l8.7,9.2c-3.8,5-8.6,8.8-14.4,11.3    c-5.8,2.5-12.6,3.8-20.4,3.8c-7.2,0-13.7-1.2-19.4-3.7c-5.7-2.5-10.6-5.8-14.5-10.2c-4-4.3-7-9.5-9.2-15.4    c-2.1-5.9-3.2-12.4-3.2-19.3c0-7.1,1.2-13.6,3.7-19.5c2.4-5.9,5.8-11.1,10.2-15.4c4.4-4.3,9.6-7.6,15.7-10    c6.1-2.4,12.8-3.6,20.1-3.6c3.6,0,6.9,0.3,10.1,0.9c3.2,0.6,6.1,1.5,8.8,2.6c2.7,1.1,5.3,2.4,7.6,4c2.3,1.5,4.3,3.2,6.1,5.1    l-7.4,10c-0.5,0.6-1,1.2-1.7,1.7c-0.7,0.5-1.6,0.7-2.7,0.7c-0.8,0-1.5-0.2-2.2-0.5c-0.7-0.3-1.4-0.8-2.2-1.3    c-0.8-0.5-1.6-1-2.6-1.6c-0.9-0.6-2-1.1-3.3-1.6c-1.3-0.5-2.8-0.9-4.5-1.3c-1.7-0.3-3.7-0.5-6-0.5c-4,0-7.6,0.7-11,2.1    c-3.3,1.4-6.1,3.4-8.5,6.1c-2.4,2.6-4.2,5.8-5.5,9.6c-1.3,3.7-2,7.9-2,12.6c0,4.9,0.7,9.2,2,13c1.3,3.8,3.1,7,5.4,9.6    c2.3,2.6,4.9,4.6,8,5.9c3,1.3,6.3,2,9.8,2c2,0,3.8-0.1,5.5-0.3c1.7-0.2,3.2-0.5,4.6-1c1.4-0.5,2.8-1.1,4-1.9    c1.3-0.8,2.6-1.7,3.9-2.8c0.5-0.4,1.1-0.8,1.7-1.1C699,510.6,699.7,510.5,700.3,510.5z"/>
		<path class="st0" d="M744.2,478.5h3.5c3.3,0,5.6-1,7-3.1l21.4-31c1.2-1.7,2.5-2.8,4-3.5c1.5-0.6,3.3-0.9,5.5-0.9h19.2l-28.2,38.4    c-1,1.4-2,2.5-3.1,3.5c-1.1,0.9-2.2,1.7-3.3,2.3c1.7,0.6,3.2,1.4,4.5,2.5c1.4,1.1,2.6,2.5,3.7,4.3l28.7,44.1h-19.7    c-1.3,0-2.3-0.1-3.2-0.3c-0.9-0.2-1.7-0.4-2.3-0.8c-0.7-0.3-1.2-0.8-1.7-1.3c-0.5-0.5-0.9-1.1-1.4-1.7l-21.5-33.1    c-0.8-1.2-1.8-2.1-3-2.6c-1.2-0.5-2.8-0.7-4.9-0.7h-5.3V535h-22v-95h22V478.5z"/>
	</g>
	<g>
		<path class="st0" d="M569.3,328.5c-1.7-2.7-3.6-5-5.8-6.9c-2.2-1.9-4.6-3.5-7.2-4.7c5.3-2,10-4.6,14.1-7.8    c4.1-3.2,7.5-6.7,10.4-10.8c2.8-4,4.9-8.4,6.4-13.1c1.4-4.7,2.1-9.8,2.1-15.1c0-7-1.2-13.4-3.6-19.4c-2.4-5.9-6.2-11.1-11.5-15.4    c-5.3-4.4-12.1-7.8-20.5-10.2c-8.4-2.4-18.5-3.7-30.3-3.7h-11.4L485,385.6h23v-60.7h9.7c2.9,0,5.2,0.4,6.8,1.4    c1.6,0.9,3,2.4,4.2,4.5l27.2,47.6c2.8,4.8,7.4,7.2,13.7,7.2h34.5L569.3,328.5z M550.6,283.1c-1.1,3.1-2.7,5.8-5.1,8.2    c-2.3,2.3-5.3,4.1-9,5.5c-3.6,1.3-8.1,2-13.2,2H508v-48.6h15.3c9.8,0,17.1,2,21.8,6.1c4.7,4.1,7,9.7,7,16.9    C552.2,276.6,551.6,280,550.6,283.1z"/>
		<path class="st0" d="M492.8,271.3l11-67c-4.9-3.5-11.1-6.3-18.7-8.3c-8-2.1-17.6-3.2-28.9-3.2h-60.4v164.1h65.5    c6.3,0,12.2-0.5,17.7-1.6l13.6-82.9L492.8,271.3z M433.9,221.3h22.3c4.3,0,8,0.3,11.1,1c3.1,0.7,5.7,1.8,7.7,3.4    c2,1.6,3.5,3.7,4.5,6.2c1,2.6,1.5,5.8,1.5,9.7c0,4-0.6,7.3-1.9,9.9c-1.2,2.6-3,4.7-5.4,6.2c-2.4,1.5-5.2,2.6-8.6,3.2    c-3.4,0.6-7.2,0.9-11.4,0.9h-19.8V221.3z M484.2,314.4c-0.7,2.6-1.9,4.8-3.7,6.9c-1.8,2-4.3,3.7-7.5,5c-3.2,1.3-7.3,1.9-12.3,1.9    h-26.8v-40.9h26.6c4.8,0,8.8,0.5,11.9,1.4c3.2,0.9,5.7,2.2,7.6,3.8c1.9,1.7,3.3,3.7,4.1,6.1c0.8,2.4,1.2,5.1,1.2,8.1    C485.2,309.3,484.9,311.9,484.2,314.4z"/>
	</g>
</g>
</svg>