<svg fill="none" viewBox="0 0 97 25" xmlns="http://www.w3.org/2000/svg">
    <g clip-path="url(#clip0_1386_356)" >
        <path fill-rule="evenodd" clip-rule="evenodd"
              d="M13.0095 0.511902C5.52422 0.511902 0.595703 5.21471 0.595703 12.4127C0.595703 19.6107 5.52422 24.3136 13.0095 24.3136C16.9159 24.3136 20.8356 23.1027 23.0418 19.6613V23.5202H36.6473C43.6321 23.5202 46.0721 20.7949 46.0721 17.1195L46.0701 17.1215C46.0701 14.6878 45.1101 13.1268 42.7987 12.1489V11.6729C44.1298 10.8629 45.2719 10.1621 45.4881 7.96975H51.022V23.5202H58.8889V7.96975H64.7134L67.5309 23.5202H78.124L79.6292 13.946H80.3049L81.8102 23.5202H92.4286L96.4536 1.30529H88.4562L86.5089 14.9516H85.8332L83.0545 1.30529H76.8758L74.1243 14.9516H73.4486L71.476 1.30529H66.6254H63.5059H43.3108V2.75399C42.0253 1.8764 40.0684 1.30529 37.1653 1.30529H23.0418V5.1685C20.8203 1.72812 16.8699 0.511902 13.0095 0.511902ZM23.0418 10.8458V13.9261H17.2876C16.793 16.2904 15.2547 17.3793 13.0114 17.3793C10.482 17.3793 8.42175 15.4931 8.42175 12.4127C8.42175 9.3324 10.482 7.44612 13.0114 7.44612C15.2527 7.44612 16.793 8.53504 17.2876 10.8458H23.0418ZM30.8834 7.61074V10.3083H36.2053C37.7884 10.3083 38.0221 9.25108 38.0221 8.98529C38.0221 8.50926 37.7884 7.61074 36.2053 7.61074H30.8834ZM38.1272 16.1258C38.1272 15.6498 37.8682 14.6977 36.3104 14.6977H30.8834V17.6074H36.3104C37.8682 17.6074 38.1272 16.5225 38.1272 16.1258Z"
              fill="white" ></path>
    </g>
    <defs >
        <clipPath id="clip0_1386_356" >
            <rect width="96" height="24" fill="white" transform="translate(0.5 0.5)" ></rect>
        </clipPath>
    </defs>
</svg>