<?xml version="1.0" encoding="UTF-8"?>
<svg xmlns="http://www.w3.org/2000/svg" viewBox="0 0 934.74 345.45">
  <defs>
    <style>
      .cls-1 {
        fill: white;
      }

      .cls-1, .cls-2, .cls-3, .cls-4 {
        stroke-width: 0px;
      }

      .cls-2 {
        fill: white;
      }

      .cls-3 {
        fill: #fff;
      }

      .cls-4 {
        fill: #f18c19;
      }
    </style>
  </defs>
  <path class="cls-2" d="M281.41,174.82c0-.99-.02-1.96-.07-2.93,0-.01-.01-.02,0-.04-.02-.48-.06-.95-.09-1.42-.19-2.82-.56-5.55-1.13-8.21-1.85-8.83-5.77-16.81-11.72-23.93-.02-.02-.05-.05-.07-.08-1.22-1.44-2.52-2.86-3.92-4.25-1.38-1.4-2.82-2.7-4.27-3.93-.29-.23-.59-.48-.89-.72-9.44-7.62-20.35-11.72-32.71-12.27-.01.01-.04,0-.05,0-.96-.05-1.94-.07-2.92-.07h-.12c-.87,0-1.72.02-2.58.06-.29.01-.57.02-.87.05-.32.02-.63.04-.95.06-11.28.77-21.35,4.55-30.17,11.33-.29.22-.59.45-.87.67-1.85,1.48-3.65,3.08-5.4,4.82-1.04,1.04-2.04,2.1-2.99,3.17-.33.35-.63.72-.93,1.08-.02.04-.04.06-.07.08-5.95,7.12-9.86,15.1-11.71,23.93-.57,2.66-.95,5.4-1.14,8.21-.04.47-.07.94-.09,1.42.01.01,0,.02,0,.04-.05.97-.07,1.95-.07,2.93v.09c0,.89.02,1.77.06,2.65.01.23.02.48.04.72.02.35.05.69.07,1.04.19,2.77.56,5.47,1.13,8.09,1.69,8.06,5.09,15.42,10.22,22.09.27.38.55.74.84,1.1,1.43,1.77,2.98,3.5,4.65,5.16,1.42,1.42,2.87,2.74,4.35,3.99.62.52,1.26,1.01,1.91,1.5,8.82,6.78,18.88,10.56,30.17,11.33.32.02.63.04.95.06.29.02.57.04.87.05.86.04,1.71.06,2.58.06h.12c.99,0,1.96-.02,2.92-.07.02-.01.04-.01.06,0,14.76-.67,27.44-6.33,38.05-17.01h-.01s-20.73-20.82-20.73-20.82c-5.35,4.93-12.5,7.93-20.35,7.93-11.26,0-21.08-6.19-26.23-15.37h84.12v-12.6ZM195.34,162.23c4.25-11.44,15.26-19.58,28.17-19.58s23.93,8.14,28.19,19.58h-56.36Z"/>
  <path class="cls-2" d="M402.06,174.82c0-.99-.02-1.96-.07-2.93,0-.01-.01-.02,0-.04-.02-.48-.06-.95-.09-1.42-.19-2.82-.56-5.55-1.13-8.21-1.85-8.83-5.77-16.81-11.72-23.93-.02-.02-.05-.05-.07-.08-1.22-1.44-2.52-2.86-3.92-4.25-1.38-1.4-2.82-2.7-4.27-3.93-.29-.23-.59-.48-.89-.72-9.44-7.62-20.35-11.72-32.71-12.27-.01.01-.04,0-.05,0-.96-.05-1.94-.07-2.92-.07h-.12c-.87,0-1.72.02-2.58.06-.29.01-.57.02-.87.05-.32.02-.63.04-.95.06-11.28.77-21.35,4.55-30.17,11.33-.29.22-.59.45-.87.67-1.85,1.48-3.65,3.08-5.4,4.82-1.04,1.04-2.04,2.1-2.99,3.17-.33.35-.63.72-.93,1.08-.02.04-.04.06-.07.08-5.95,7.12-9.86,15.1-11.71,23.93-.57,2.66-.95,5.4-1.14,8.21-.04.47-.07.94-.09,1.42.01.01,0,.02,0,.04-.05.97-.07,1.95-.07,2.93v.09c0,.89.02,1.77.06,2.65.01.23.02.48.04.72.02.35.05.69.07,1.04.19,2.77.56,5.47,1.13,8.09,1.69,8.06,5.09,15.42,10.22,22.09.27.38.55.74.84,1.1,1.43,1.77,2.98,3.5,4.65,5.16,1.42,1.42,2.87,2.74,4.35,3.99.62.52,1.26,1.01,1.91,1.5,8.82,6.78,18.88,10.56,30.17,11.33.32.02.63.04.95.06.29.02.57.04.87.05.86.04,1.71.06,2.58.06h.12c.99,0,1.96-.02,2.92-.07.02-.01.04-.01.06,0,14.76-.67,27.44-6.33,38.05-17.01h-.01s-20.73-20.82-20.73-20.82c-5.35,4.93-12.5,7.93-20.35,7.93-11.26,0-21.08-6.19-26.23-15.37h84.12v-12.6ZM315.99,162.23c4.25-11.44,15.26-19.58,28.17-19.58s23.93,8.14,28.19,19.58h-56.36Z"/>
  <rect class="cls-4" x="62.79" y="76.84" width="35.93" height="35.93"/>
  <path class="cls-2" d="M159.55,124.88v-36.26h-48.21v36.26h-35.59v107.71h35.91v-57.27h44.77v-36.21h-44.77v-14.23h47.89Z"/>
  <path class="cls-1" d="M410.32,89.08h35.93v143.72h-35.93V89.08Z"/>
  <g>
    <path class="cls-4" d="M491.85,72c0,2.21-.78,4.1-2.34,5.66-1.56,1.58-3.44,2.37-5.66,2.37s-4.1-.79-5.66-2.37c-1.56-1.56-2.34-3.44-2.34-5.66s.78-4.08,2.34-5.66c1.56-1.56,3.44-2.34,5.66-2.34s4.1.78,5.66,2.34c1.56,1.58,2.34,3.47,2.34,5.66ZM476.92,84.85h13.87v43.15h-13.87v-43.15Z"/>
    <path class="cls-4" d="M516.78,84.38c5.65,0,10.48,2.01,14.49,6.02,4.02,4.02,6.02,8.86,6.02,14.53v23.07h-13.84v-23.07c0-1.85-.66-3.43-1.97-4.75-1.31-1.29-2.88-1.93-4.71-1.93s-3.43.64-4.75,1.93c-1.31,1.31-1.97,2.9-1.97,4.75v23.07h-13.84v-43.15h13.84v.66c2.19-.75,4.43-1.13,6.72-1.13Z"/>
  </g>
  <path class="cls-2" d="M730.16,175.01c0,7.93-1.53,15.52-4.56,22.53-3.05,7.03-7.22,13.19-12.42,18.34-5.16,5.11-11.34,9.25-18.34,12.31-6.99,3.05-14.57,4.6-22.53,4.6s-15.5-1.55-22.49-4.6c-6.99-3.03-13.14-7.17-18.28-12.33-5.16-5.14-9.3-11.29-12.35-18.3-3.03-7.03-4.56-14.62-4.56-22.55s1.53-15.52,4.56-22.53c3.05-7.03,7.19-13.19,12.35-18.32,4.77-4.77,10.29-8.65,16.47-11.52l4.93-2.31v37.68l-.74.95c-1.48,1.83-2.64,3.82-3.61,6.04-1.36,3.15-2.04,6.41-2.04,10.02s.69,6.94,2.04,9.99c1.32,3.12,3.19,5.9,5.55,8.28,2.34,2.34,5.11,4.21,8.21,5.55,6.2,2.64,13.88,2.66,20.06,0,3.12-1.34,5.9-3.22,8.24-5.55,2.36-2.38,4.23-5.16,5.55-8.26,1.36-3.08,2.04-6.45,2.04-10.02s-.67-6.87-2.01-10.02c-.97-2.22-2.15-4.21-3.61-6.04l-.76-.95v-37.61l4.95,2.31c6.15,2.91,11.68,6.76,16.38,11.45,5.2,5.14,9.37,11.29,12.42,18.3v.02c3.03,7.01,4.56,14.6,4.56,22.53Z"/>
  <rect class="cls-4" x="661.35" y="117.47" width="22.1" height="45.42"/>
  <circle class="cls-4" cx="870.95" cy="212.83" r="16.49"/>
  <path class="cls-2" d="M775.39,89.08v32.38c6.95-2.78,14.16-4.17,21.61-4.17,15.86,0,29.39,5.62,40.57,16.87,11.25,11.19,16.87,24.71,16.87,40.57s-5.62,29.42-16.87,40.67c-11.19,11.25-24.71,16.87-40.57,16.87-7.46,0-14.66-1.39-21.61-4.17v4.17h-35.93V89.08h35.93ZM812.17,189.99c4.23-4.23,6.35-9.32,6.35-15.26s-2.12-11-6.35-15.17c-4.17-4.23-9.23-6.35-15.17-6.35s-11.03,2.12-15.26,6.35c-4.23,4.17-6.35,9.23-6.35,15.17s2.12,11.03,6.35,15.26c4.23,4.23,9.32,6.35,15.26,6.35s11-2.12,15.17-6.35Z"/>
  <path class="cls-2" d="M602.63,117.47v125.74c0,11.82-4.17,21.93-12.51,30.31-8.34,8.39-18.39,12.58-30.14,12.58h-9.29v-25.17h6.26c2.65,0,4.93-.95,6.83-2.86,1.9-1.91,2.84-4.23,2.84-6.96V117.47h36.02Z"/>
  <path class="cls-2" d="M605.38,85.05c0,5.75-2.02,10.65-6.07,14.69-4.04,4.11-8.94,6.16-14.69,6.16s-10.65-2.05-14.69-6.16c-4.04-4.04-6.07-8.94-6.07-14.69s2.02-10.59,6.07-14.69c4.04-4.04,8.94-6.07,14.69-6.07s10.65,2.02,14.69,6.07c4.04,4.11,6.07,9.01,6.07,14.69Z"/>
</svg>