<?xml version="1.0" encoding="UTF-8"?>
<svg viewBox="0 0 440 230" version="1.1" xmlns="http://www.w3.org/2000/svg" xmlns:xlink="http://www.w3.org/1999/xlink">
    <title>logo-indy</title>
    <g id="Page-1" stroke="none" stroke-width="1" fill="none" fill-rule="evenodd">
        <g id="logo-indy">
            <rect id="Zone-de-protection" x="0" y="0" width="440" height="230"></rect>
            <g id="Component/Logo-/IEG/simple" transform="translate(79.000000, 50.000000)" fill="#fff" fill-rule="nonzero">
                <g id="Logo-indy-ex-georges-simple" transform="translate(0.000000, -0.000000)">
                    <path d="M276.949104,35.2807948 C279.384734,35.2807948 281.359203,37.2552635 281.359203,39.6908941 C281.359203,40.2622951 281.248161,40.8282509 281.032252,41.3572901 L253.221109,109.502571 L252.851466,110.309123 L252.47052,111.110835 L252.078082,111.906719 L251.673962,112.695787 L251.257969,113.477051 L250.829913,114.249521 L250.611302,114.63215 L250.164795,115.389578 L249.705749,116.135743 L249.313495,116.748229 C249.13718,117.018469 248.958212,117.28602 248.77655,117.550653 L248.502029,117.945388 L247.997599,118.644346 L247.740373,118.987995 L247.479775,119.327593 L246.948365,119.99414 L246.40318,120.642999 L246.11932,120.966275 C241.778014,125.826552 235.212546,129.406247 227.539326,129.044619 L219.73225,129.044478 C217.296651,129.044354 215.322231,127.069898 215.322151,124.634299 L215.322151,110.376224 C215.322151,107.940593 217.29662,105.966124 219.73225,105.966124 L221.926936,105.966124 C224.740375,105.966124 226.223138,104.860753 226.981724,103.894959 L227.116439,103.644421 L227.224259,103.428488 C227.365816,103.130544 227.416602,102.949393 227.376615,102.885036 L227.309109,102.766065 L227.222111,102.595068 L227.115621,102.372046 L202.200374,41.3785485 C201.279325,39.1237836 202.360515,36.5492775 204.61528,35.6282282 C205.143344,35.4125189 205.708242,35.3013029 206.278665,35.3007439 L222.219185,35.2836794 C224.001126,35.2819329 225.609023,36.3527321 226.294377,37.997605 L241.750741,74.5053384 L256.732524,38.0422444 C257.405081,36.3736115 259.023796,35.2807948 260.82287,35.2807948 L276.949104,35.2807948 Z M190.369288,11.7602649 C192.804919,11.7602649 194.779388,13.7347337 194.779388,16.1703643 L194.779388,99.9622518 C194.779388,102.397882 192.804919,104.372351 190.369288,104.372351 L174.198924,104.372351 C171.763294,104.372351 169.788825,102.397882 169.788825,99.9622518 L169.788825,96.1706155 L169.549469,96.4882848 C168.158932,98.3415863 166.53541,99.912103 164.760478,101.197901 C161.432339,103.649811 156.623738,105.305264 151.52203,105.600818 L151.096235,105.622287 C151.094707,105.622491 151.093229,105.623394 151.09175,105.624296 L151.032413,105.624954 C150.807154,105.634112 150.581401,105.640602 150.355256,105.644376 L149.851217,105.645518 L150.324039,105.639878 L149.24383,105.634156 C149.112191,105.631959 148.981101,105.628841 148.850561,105.624813 L148.714061,105.624296 C130.096469,105.624296 115.332116,90.1722492 114.685688,71.4824874 C114.670083,71.321355 114.662583,71.1528109 114.662583,70.9781539 C114.662583,70.8391878 114.662583,70.70037 114.66482,70.5617053 L114.662583,70.3536674 L114.662583,70.1450252 C114.662583,63.2953337 116.637815,56.8941597 120.022875,51.5255934 C125.87841,41.8366915 136.047014,35.2807948 148.08914,35.2807948 L150.355256,35.2819369 C155.8849,35.3742222 161.17961,37.090312 164.760478,39.7284124 C166.525601,41.0071043 168.140982,42.5673767 169.526394,44.4073276 L169.819719,44.8058829 L169.706461,16.1878174 C169.697041,13.8075606 171.575089,11.8602758 173.933752,11.7639956 L174.116526,11.7602649 L190.369288,11.7602649 Z M83.1490321,35.2807948 L82.6762098,35.2864354 L83.7564183,35.2921576 C95.4780438,35.4877821 102.841232,42.9799142 105.757149,51.091654 L105.899238,51.4977264 L106.161658,52.303568 L106.404679,53.1206492 L106.519086,53.5331406 L106.628849,53.948125 L106.834714,54.7851501 C106.9441,55.2526602 107.045264,55.7242001 107.138628,56.1991177 L107.272878,56.9139459 L107.41898,57.777739 L107.549237,58.6472786 L107.608594,59.0839392 L107.716109,59.960514 L107.809144,60.8407226 L107.888248,61.7237199 L107.953966,62.6086607 L108.006846,63.4947001 L108.047434,64.3809929 L108.047434,99.9622518 C108.047434,102.397882 106.072965,104.372351 103.637335,104.372351 L87.4669703,104.372351 C85.0313397,104.372351 83.056871,102.397882 83.056871,99.9622518 L83.056871,69.826573 L83.0528178,69.3987077 C83.0514626,69.327195 83.0497655,69.2555894 83.0477233,69.1839027 L83.0313052,68.7529029 L83.0064571,68.3205235 C83.001605,68.2483768 82.9963954,68.1761963 82.9908252,68.1039938 L82.9530524,67.6706096 C82.9319776,67.4538802 82.9076016,67.2371658 82.8798404,67.0207859 L82.8197796,66.5885666 L82.7505422,66.1578072 C81.8763508,61.071365 79.0433532,56.4108335 73.1381972,56.4108335 C67.1107851,56.4108335 63.2114239,61.4634059 63.2114239,68.9296586 L63.2114239,99.9622518 C63.2114239,102.397882 61.2369552,104.372351 58.8013246,104.372351 L42.6309603,104.372351 C40.1953297,104.372351 38.220861,102.397882 38.220861,99.9622518 L38.220861,41.1609272 C38.220861,38.7252966 40.1953297,36.7508279 42.6309603,36.7508279 L58.7704309,36.7508279 C61.2060615,36.7508279 63.1805302,38.7252966 63.1805302,41.1609272 L63.1805302,44.8058829 C64.6292617,42.7917094 66.3485674,41.0984394 68.2397707,39.7284124 C71.8206387,37.090312 77.115349,35.3742222 82.6449931,35.2819369 L83.1490321,35.2807948 Z M22.0504967,36.7508279 C24.4861273,36.7508279 26.4605961,38.7252966 26.4605961,41.1609272 L26.4605961,99.5588816 C26.4605961,102.108752 25.4552033,104.032359 22.0504967,104.032359 L21.9442552,104.031001 L21.7077269,104.019852 L21.4403762,103.996825 C21.3933318,103.991955 21.3450649,103.986558 21.2956067,103.980619 L20.9848077,103.938346 L20.6469,103.88229 L20.2833691,103.811691 C14.7709393,102.665859 1.47003311,96.58152 1.47003311,74.7475347 L1.47003311,41.1609272 C1.47003311,38.7252966 3.44450185,36.7508279 5.88013246,36.7508279 L22.0504967,36.7508279 Z M152.148427,55.1262418 C143.62372,55.1262418 136.71308,62.0368824 136.71308,70.5615895 C136.71308,79.0862967 143.62372,85.9969372 152.148427,85.9969372 C160.673135,85.9969372 167.583775,79.0862967 167.583775,70.5615895 C167.583775,62.0368824 160.673135,55.1262418 152.148427,55.1262418 Z M14.0469831,-7.30280034e-15 C21.7238227,-7.30280034e-15 27.9306292,6.24331711 27.9306292,13.9653146 C27.9306292,21.6873121 21.7238227,27.9306292 14.0469831,27.9306292 C6.3701435,27.9306292 0,21.6873121 0,13.9653146 C0,6.24331711 6.3701435,-7.30280034e-15 14.0469831,-7.30280034e-15 Z" id="Logo-Indy"></path>
                </g>
            </g>
        </g>
    </g>
</svg>
