<svg width="635" height="198" viewBox="0 0 635 198" fill="none" xmlns="http://www.w3.org/2000/svg">
    <rect x="20" y="26" width="140" height="145" rx="10" fill="white"/>
    <path d="M60.1161 59.5876H87.6689V92.6566C87.6689 94.5463 86.1204 96.0871 84.2212 96.0871H51V68.658C51 63.6431 55.0906 59.5876 60.1161 59.5876Z"
          fill="#161A1D"/>
    <path d="M94.1701 59.4715H130.839V69.0942C130.839 83.9208 118.743 95.971 103.827 95.971H97.6032C95.704 95.971 94.1555 94.4302 94.1555 92.5405V59.4715H94.1701Z"
          fill="#161A1D"/>
    <path d="M94.17 138.924V105.855C94.17 103.966 95.7186 102.425 97.6177 102.425H103.841C118.743 102.425 130.854 114.461 130.854 129.302V138.924H94.1846H94.17Z"
          fill="#161A1D"/>
    <path d="M51 102.425H84.2358C86.135 102.425 87.6836 103.966 87.6836 105.855V138.924H60.1161C55.076 138.924 51 134.854 51 129.854V102.439V102.425Z"
          fill="#161A1D"/>
    <path d="M90.8392 102.396C92.6546 102.396 94.1262 100.932 94.1262 99.1252C94.1262 97.319 92.6546 95.8547 90.8392 95.8547C89.0238 95.8547 87.5521 97.319 87.5521 99.1252C87.5521 100.932 89.0238 102.396 90.8392 102.396Z"
          fill="#161A1D"/>
    <g clip-path="url(#clip0_140_535)">
        <path d="M607.01 139.2C611.975 139.2 616 135.166 616 130.188C616 125.211 611.975 121.176 607.01 121.176C602.045 121.176 598.021 125.211 598.021 130.188C598.021 135.166 602.045 139.2 607.01 139.2Z"
              fill="#2C46FD"/>
        <path d="M187.206 138.91V59.2097H203.214V102.774L237.737 59.2097H256.586L227.834 94.1539L257.674 138.924H239.056L215.64 102.134L203.228 116.99V138.939H187.221L187.206 138.91Z"
              fill="white"/>
        <path d="M285.89 140C280.8 140 276.291 139.215 272.333 137.66C268.374 136.09 265.068 133.909 262.415 131.104C259.762 128.299 257.732 124.955 256.311 121.06C254.89 117.164 254.194 112.92 254.194 108.341C254.194 103.762 254.919 99.6194 256.369 95.7238C257.819 91.8282 259.907 88.4559 262.632 85.6214C265.358 82.7869 268.679 80.5629 272.594 78.964C276.509 77.365 280.945 76.5656 285.875 76.5656C290.805 76.5656 295.474 77.3796 299.432 79.0221C303.391 80.6647 306.697 82.9032 309.35 85.7377C312.003 88.5722 314.033 91.9445 315.454 95.8401C316.875 99.7357 317.571 103.907 317.571 108.341C317.571 112.774 316.846 116.946 315.396 120.842C313.946 124.737 311.858 128.081 309.132 130.886C306.407 133.691 303.072 135.915 299.113 137.543C295.155 139.186 290.747 140 285.875 140H285.89ZM285.89 126.569C291.4 126.569 295.372 124.883 297.765 121.496C300.157 118.109 301.361 113.719 301.361 108.341C301.361 102.963 300.157 98.4275 297.765 94.9679C295.372 91.5084 291.414 89.7786 285.89 89.7786C280.365 89.7786 276.596 91.5229 274.131 95.0261C271.666 98.5147 270.433 102.963 270.433 108.341C270.433 113.719 271.593 118.211 273.913 121.554C276.233 124.897 280.235 126.583 285.89 126.583V126.569Z"
              fill="white"/>
        <path d="M341.756 52V138.91H325.85V52H341.756Z" fill="white"/>
        <path d="M409.614 124.941C406.787 129.52 403.118 133.183 398.609 135.915C394.1 138.648 388.517 140.015 381.833 140.015C376.599 140.015 371.973 139.23 367.942 137.674C363.912 136.119 360.548 133.939 357.865 131.177C355.183 128.415 353.167 125.101 351.819 121.234C350.471 117.382 349.804 113.196 349.804 108.675C349.804 104.155 350.529 100.288 351.979 96.3925C353.428 92.4969 355.516 89.0955 358.242 86.1883C360.968 83.2812 364.274 80.9409 368.145 79.1966C372.031 77.4523 376.41 76.5801 381.268 76.5801C386.415 76.5801 390.881 77.4232 394.665 79.0948C398.435 80.7665 401.538 83.005 403.974 85.8104C406.41 88.6158 408.222 91.8573 409.426 95.5349C410.629 99.2125 411.224 103.021 411.224 106.946V112.847H365.159C365.811 117.208 367.536 120.638 370.335 123.109C373.133 125.58 376.889 126.816 381.601 126.816C385.153 126.816 388.024 126.104 390.199 124.694C392.374 123.269 394.375 121.002 396.188 117.876L409.585 124.97L409.614 124.941ZM381.297 89.6769C376.947 89.6769 373.394 90.8398 370.683 93.1655C367.957 95.4913 366.232 98.7764 365.507 102.992H395.68C395.463 99.2851 394.245 96.1308 392.026 93.5435C389.808 90.9561 386.241 89.6624 381.297 89.6624V89.6769Z"
              fill="white"/>
        <path d="M477.356 102.672H461.015C460.435 98.8781 459.115 95.782 457.042 93.3836C454.969 90.9852 451.793 89.7787 447.516 89.7787C442.354 89.7787 438.57 91.523 436.134 95.0261C433.698 98.5293 432.48 102.963 432.48 108.341C432.48 113.719 433.625 118.211 435.916 121.554C438.207 124.897 442.064 126.583 447.516 126.583C451.866 126.583 455.056 125.362 457.042 122.92C459.043 120.478 460.362 117.222 461.015 113.152H477.356C477.356 122.47 472.672 128.909 467.656 133.357C462.639 137.805 455.926 140.015 447.501 140.015C442.412 140.015 437.932 139.23 434.046 137.674C430.16 136.104 426.912 133.924 424.302 131.119C421.692 128.313 419.706 124.97 418.372 121.074C417.023 117.179 416.356 112.934 416.356 108.355C416.356 103.777 417.081 99.634 418.531 95.7384C419.981 91.8428 422.069 88.4705 424.795 85.636C427.521 82.8015 430.841 80.5775 434.756 78.9786C438.671 77.3796 443.064 76.5801 447.936 76.5801C457.013 76.5801 464.553 78.6878 468.975 82.9178C473.397 87.1477 477.341 93.4272 477.341 102.687L477.356 102.672Z"
              fill="white"/>
        <path d="M523.972 124.505V137.166C522.304 138.11 520.521 138.823 518.636 139.288C516.751 139.767 514.532 140 511.995 140C505.021 140 499.99 138.183 496.916 134.549C493.827 130.915 492.29 125.639 492.29 118.72V90.8834H478.458V77.7867H492.508V62.6984L507.21 53.9624V77.7721H523.986V90.8689H507.21V116.859C507.21 120.202 507.95 122.644 509.443 124.171C510.937 125.697 513.097 126.467 515.924 126.467C517.519 126.467 518.882 126.307 520.013 125.973C521.144 125.653 522.464 125.159 523.986 124.505H523.972Z"
              fill="white"/>
        <path d="M557.958 140C552.869 140 548.36 139.215 544.401 137.66C540.443 136.09 537.137 133.909 534.484 131.104C531.83 128.299 529.8 124.955 528.379 121.06C526.959 117.164 526.263 112.92 526.263 108.341C526.263 103.762 526.988 99.6194 528.437 95.7238C529.887 91.8282 531.975 88.4559 534.701 85.6214C537.427 82.7869 540.748 80.5629 544.662 78.964C548.577 77.365 553.014 76.5656 557.944 76.5656C562.874 76.5656 567.543 77.3796 571.501 79.0221C575.459 80.6647 578.765 82.9032 581.419 85.7377C584.072 88.5722 586.102 91.9445 587.523 95.8401C588.944 99.7357 589.64 103.907 589.64 108.341C589.64 112.774 588.915 116.946 587.465 120.842C586.015 124.737 583.927 128.081 581.201 130.886C578.475 133.691 575.14 135.915 571.182 137.543C567.224 139.186 562.816 140 557.944 140H557.958ZM557.958 126.569C563.468 126.569 567.441 124.883 569.834 121.496C572.226 118.109 573.429 113.719 573.429 108.341C573.429 102.963 572.226 98.4275 569.834 94.9679C567.441 91.5084 563.483 89.7786 557.958 89.7786C552.434 89.7786 548.664 91.5229 546.199 95.0261C543.734 98.5147 542.502 102.963 542.502 108.341C542.502 113.719 543.662 118.211 545.982 121.554C548.302 124.897 552.304 126.583 557.958 126.583V126.569Z"
              fill="white"/>
    </g>
    <defs>
        <clipPath id="clip0_140_535">
            <rect width="529" height="88" fill="#161A1D" transform="translate(87 52)"/>
        </clipPath>
    </defs>
</svg>
