<svg width="150" height="43" viewBox="0 0 150 43" fill="none" xmlns="http://www.w3.org/2000/svg">
<path d="M32.1993 10.5357C29.3591 7.69551 26.3252 9.53378 24.4265 11.4325L6.49014 29.3694C4.59144 31.2679 2.60411 34.1526 5.59336 37.1414C8.58262 40.1313 11.4673 38.1436 13.3656 36.2449L31.3023 18.3084C33.201 16.4095 35.0393 13.3755 32.1993 10.5357Z" fill="white"/>
<path d="M15.0631 9.80108L18.8611 13.5989L22.727 9.733C22.9894 9.46992 23.2559 9.22579 23.524 8.99555C23.1192 6.95303 21.9537 5.1065 18.8593 5.1065C15.759 5.1065 14.595 6.96028 14.1923 9.00724C14.4818 9.25762 14.7706 9.5086 15.0631 9.80108Z" fill="white"/>
<path d="M22.7248 38.0122L18.8613 34.1486L15.0653 37.9442C14.7771 38.2326 14.4902 38.4961 14.2046 38.7436C14.6399 40.8258 15.8718 42.733 18.8597 42.733C21.8554 42.733 23.0857 40.8156 23.5182 38.7267C23.2525 38.4981 22.9866 38.2739 22.7248 38.0122Z" fill="white"/>
<path d="M13.4522 19.0079H6.13018C3.44549 19.0079 0 19.8537 0 23.8699C0 26.8666 1.91804 28.0972 4.00729 28.5294C4.25465 28.2438 13.4522 19.0079 13.4522 19.0079Z" fill="white"/>
<path d="M33.7268 19.2029C33.4951 19.4724 24.2782 28.7317 24.2782 28.7317H31.4963C34.1812 28.7317 37.6265 28.0974 37.6265 23.8699C37.6265 20.7701 35.7733 19.6054 33.7268 19.2029Z" fill="white"/>
<path d="M15.8513 16.6044L17.1594 15.2963L13.3638 11.5002C11.4649 9.60166 8.5806 7.61413 5.59135 10.6034C3.39937 12.7954 3.88623 14.9287 5.04889 16.6606C5.40301 16.6345 15.8513 16.6044 15.8513 16.6044Z" fill="white"/>
<path d="M21.8697 31.1352L20.5582 32.4467L24.4244 36.3126C26.3231 38.2115 29.3571 40.0493 32.1969 37.2095C34.316 35.0903 33.8297 32.8644 32.6582 31.0814C32.2811 31.1086 21.8697 31.1352 21.8697 31.1352Z" fill="white"/>
<path d="M112.925 11.4035C112.277 11.4035 111.142 11.5656 109.898 12.1061C108.277 12.8087 107.413 13.3491 106.98 14.0515C105.359 12.1603 103.251 11.5656 100.873 11.5656C93.9012 11.5656 88.9292 17.4565 88.9292 25.8333C88.9292 32.8592 92.7123 38.0475 98.0628 38.0475C99.6839 38.0475 101.143 37.3987 102.873 35.7778C104.224 34.5345 104.873 33.7242 104.873 32.9674C104.873 32.4267 104.494 32.0484 103.954 32.0484C103.197 32.0484 102.386 32.6969 101.359 32.6969C99.1434 32.6969 97.6301 29.2918 97.6301 24.2657C97.6301 19.2398 99.6297 15.835 102.656 15.835C104.656 15.835 106.169 17.3479 106.169 19.9424V35.7236C106.169 37.4527 107.79 37.9391 110.763 37.9391C113.682 37.9391 114.816 37.3987 114.816 35.7236V13.1332C114.817 12.0519 114.114 11.4035 112.925 11.4035Z" fill="white"/>
<path d="M79.58 11.4035C77.4722 11.4035 75.2564 12.1603 73.3104 13.6734C72.2297 14.5382 71.3108 15.5109 71.3108 16.3216C71.3108 17.024 71.797 17.4023 72.4998 17.4023C73.6891 17.4023 74.0674 16.9161 75.2022 16.9161C76.3371 16.9161 76.8775 17.9969 76.8775 19.8886V35.724C76.8775 37.4531 78.4991 37.9395 81.4712 37.9395C84.3897 37.9395 85.5246 37.3991 85.5246 35.724V18.3752C85.5246 14.2676 83.0927 11.4035 79.58 11.4035Z" fill="white"/>
<path d="M64.3932 11.4035C62.1774 11.4035 60.1776 12.1603 58.2322 13.6734C57.1513 14.5382 56.2326 15.5109 56.2326 16.3216C56.2326 17.024 56.7186 17.4023 57.4216 17.4023C58.6103 17.4023 58.989 16.9161 60.0159 16.9161C61.0428 16.9161 61.5832 17.9969 61.5832 19.8886V35.724C61.5832 37.4531 63.2043 37.9395 66.1767 37.9395C69.0954 37.9395 70.2301 37.3991 70.2301 35.724V18.3752C70.2299 14.2676 67.7978 11.4035 64.3932 11.4035Z" fill="white"/>
<path d="M53.0437 11.4035C52.2331 11.4035 51.2604 11.5656 50.017 12.1061C47.3148 13.2951 46.2881 14.0515 46.2881 15.727V35.7238C46.2881 37.4529 47.9092 37.9393 50.8817 37.9393C53.8003 37.9393 54.9351 37.3989 54.9351 35.7238V13.1332C54.9353 12.0519 54.2328 11.4035 53.0437 11.4035Z" fill="white"/>
<path d="M148.109 30.6433C145.947 31.1837 145.298 31.3458 144.541 31.3458C143.623 31.3458 143.298 31.0755 143.298 30.1028V16.5916H148.217C149.514 16.5916 150 16.1053 150 14.8083C150 13.7274 149.514 13.1865 148.217 13.1865H143.298V7.94428C143.298 6.32275 142.758 5.67434 141.623 5.67434C140.542 5.67434 139.029 6.64726 135.786 9.40365C132.49 12.214 130.598 14.0515 130.598 15.3485C130.598 16.1053 131.139 16.5916 132.003 16.5916H134.651V31.1837C134.651 35.4535 136.759 37.9393 140.434 37.9393C142.866 37.9393 144.65 37.0204 146.758 35.3993C148.703 33.8859 149.946 32.6968 149.946 31.6704C149.946 30.8056 149.298 30.3189 148.109 30.6433Z" fill="white"/>
<path d="M126.221 0C125.788 0 124.437 0.162153 123.194 0.702595C120.491 1.83746 119.465 2.64803 119.465 4.32354V35.7236C119.465 37.4533 121.086 37.9395 124.059 37.9395C126.977 37.9395 128.112 37.3991 128.112 35.7236V1.7295C128.112 0.64841 127.409 0 126.221 0Z" fill="white"/>
</svg>
