<svg xmlns="http://www.w3.org/2000/svg" viewBox="0 0 55 60" fill="none">
    <rect width="55" height="52" fill="white"/>
    <path d="M27.4951 42.5727C22.0804 42.5727 16.6621 42.5616 11.2474 42.58C9.57517 42.5837 8.17546 41.5029 7.7003 40.0728C6.98571 37.9184 8.38542 35.6281 10.6323 35.2899C10.8312 35.2605 11.0338 35.2494 11.2364 35.2494C22.0804 35.2457 32.9245 35.2457 43.7685 35.2494C45.6949 35.2494 47.2567 36.6464 47.4704 38.5434C47.684 40.4478 46.2769 42.2712 44.3836 42.5322C44.1553 42.5653 43.9195 42.5727 43.6875 42.5727C38.2912 42.5727 32.895 42.5727 27.4951 42.5727ZM27.5024 40.8705C32.8876 40.8705 38.2728 40.8705 43.658 40.8705C43.7501 40.8705 43.8422 40.8705 43.9343 40.8669C45.0798 40.8301 45.9786 39.6941 45.7502 38.5765C45.5513 37.5876 44.7667 36.9479 43.7501 36.9479C32.9171 36.9479 22.0841 36.9479 11.2511 36.9479C11.2069 36.9479 11.1664 36.9479 11.1222 36.9479C9.89194 36.9847 8.99318 38.1353 9.25839 39.3301C9.46466 40.2566 10.2419 40.8669 11.2143 40.8669C16.6474 40.8705 22.0767 40.8705 27.5024 40.8705Z" fill="black"/>
    <path d="M27.5171 18.4778C32.9022 18.4778 38.2874 18.4814 43.6726 18.4741C44.855 18.4741 45.8532 18.8711 46.6083 19.7755C47.4997 20.8417 47.7317 22.0659 47.264 23.371C46.7962 24.6761 45.8421 25.4665 44.4756 25.7422C44.2362 25.79 43.9894 25.8084 43.7463 25.8121C32.9133 25.8158 22.0803 25.8158 11.2473 25.8158C9.43138 25.8158 7.96905 24.6393 7.57861 22.8673C7.14028 20.8784 8.58787 18.7976 10.6064 18.5292C10.8605 18.4961 11.1184 18.4851 11.3762 18.4851C16.7577 18.4778 22.1392 18.4778 27.5171 18.4778ZM27.4986 20.1836C22.1319 20.1836 16.7651 20.1836 11.3983 20.1836C11.2989 20.1836 11.2031 20.1836 11.1037 20.1873C9.83287 20.224 8.93411 21.4703 9.29509 22.6909C9.55293 23.5658 10.3117 24.1099 11.2805 24.1099C22.095 24.1099 32.9096 24.1099 43.7242 24.1099C43.7721 24.1099 43.8236 24.1099 43.8715 24.1099C45.378 24.0621 46.2842 22.4188 45.5033 21.1394C45.1018 20.4777 44.4903 20.1836 43.7131 20.1873C38.3095 20.1873 32.9022 20.1836 27.4986 20.1836Z" fill="black"/>
    <path d="M7.70017 15.636C7.82172 15.636 7.91749 15.636 8.01326 15.636C13.7815 15.636 19.5461 15.636 25.3144 15.636C25.4065 15.636 25.4985 15.6397 25.5906 15.6286C25.8853 15.5992 26.0879 15.3639 26.0805 15.0661C26.0732 14.7867 25.8558 14.5515 25.5722 14.5331C25.4912 14.5257 25.4138 14.5294 25.3328 14.5294C20.2275 14.5294 15.126 14.5294 10.0207 14.5294C8.85677 14.5294 7.95433 13.7868 7.72596 12.6471C7.48653 11.4302 8.42949 10.1546 9.66344 10.0332C9.84025 10.0149 10.0171 10.0075 10.1939 10.0075C15.9621 10.0075 21.7267 10.0075 27.495 10.0075C27.5834 10.0075 27.6754 10.0149 27.7749 10.0185C27.7749 10.5847 27.7749 11.1325 27.7749 11.7097C27.6791 11.7097 27.5907 11.7097 27.4986 11.7097C21.7083 11.7097 15.9179 11.7097 10.1239 11.7097C10.0318 11.7097 9.9397 11.7097 9.8513 11.728C9.56031 11.7832 9.39087 12.0111 9.4056 12.3089C9.42034 12.5809 9.63398 12.7978 9.91392 12.8199C9.98759 12.8273 10.0613 12.8236 10.1349 12.8236C15.2328 12.8236 20.3307 12.8236 25.4286 12.8236C26.6588 12.8236 27.5576 13.5772 27.7638 14.7831C27.9701 15.9779 26.9866 17.2352 25.7711 17.3234C25.6017 17.3344 25.4286 17.3418 25.2554 17.3418C19.5314 17.3418 13.8073 17.3418 8.08325 17.3418C8.03536 17.3418 7.9838 17.3418 7.93591 17.3418C7.6928 17.3418 7.6928 17.3418 7.6928 17.1028C7.6928 16.6874 7.6928 16.2683 7.6928 15.8529C7.70017 15.7941 7.70017 15.7279 7.70017 15.636Z" fill="black"/>
    <path d="M45.7797 12.8089C45.7797 12.2758 45.7797 11.7685 45.7797 11.2611C45.7797 10.9009 45.7797 10.5369 45.7797 10.1766C45.7797 10.0957 45.7723 10.0112 45.8939 10.0112C46.4132 10.0112 46.9326 10.0112 47.4704 10.0112C47.4704 12.456 47.4704 14.8823 47.4704 17.3198C47.4483 17.3271 47.4188 17.3418 47.393 17.3418C46.9031 17.3455 46.4132 17.3418 45.9196 17.3455C45.7649 17.3455 45.7797 17.2499 45.7797 17.147C45.7797 16.3566 45.7797 15.5661 45.7797 14.7794C45.7797 14.7059 45.7797 14.6324 45.7797 14.5368C45.706 14.5331 45.6397 14.5221 45.5771 14.5221C40.656 14.5221 35.7386 14.5221 30.8176 14.5184C30.6444 14.5184 30.6002 14.5699 30.6039 14.7353C30.6113 15.5294 30.6002 16.3271 30.6113 17.1212C30.615 17.3014 30.5523 17.3492 30.3792 17.3455C29.9519 17.3345 29.521 17.3381 29.09 17.3455C28.9537 17.3455 28.8985 17.3124 28.8985 17.1617C28.9022 14.8346 28.9022 12.5074 28.8985 10.1803C28.8985 10.0443 28.9427 10.0002 29.079 10.0002C29.5283 10.0075 29.974 10.0075 30.4234 10.0002C30.5744 9.99649 30.6113 10.0553 30.6076 10.195C30.6039 10.9965 30.6113 11.7979 30.6039 12.5993C30.6039 12.7648 30.6444 12.8199 30.8176 12.8199C35.7386 12.8162 40.656 12.8162 45.5771 12.8162C45.636 12.8199 45.6949 12.8162 45.7797 12.8089Z" fill="black"/>
    <path d="M44.7445 15.636C44.7445 16.2132 44.7445 16.7647 44.7445 17.3308C44.6672 17.3345 44.5972 17.3455 44.5272 17.3455C40.3097 17.3455 36.0884 17.3455 31.8709 17.3492C31.6904 17.3492 31.6425 17.2904 31.6462 17.1176C31.6573 16.6911 31.6536 16.261 31.6462 15.8309C31.6425 15.6802 31.6904 15.6287 31.8451 15.6324C32.5008 15.6397 33.1564 15.636 33.8121 15.636C37.3555 15.636 40.9027 15.636 44.4462 15.636C44.5419 15.636 44.6377 15.636 44.7445 15.636Z" fill="black"/>
    <path d="M44.7666 11.7134C44.6708 11.7134 44.5972 11.7134 44.5272 11.7134C40.3133 11.7134 36.0995 11.7134 31.8856 11.7134C31.6499 11.7134 31.6499 11.7134 31.6462 11.4708C31.6462 11.0553 31.6536 10.6362 31.6425 10.2208C31.6388 10.048 31.6978 10.0039 31.8635 10.0039C33.569 10.0076 35.2744 10.0076 36.9798 10.0076C39.4882 10.0076 41.9967 10.0076 44.5051 10.0076C44.7666 10.0076 44.7666 10.0076 44.7666 10.2649C44.7666 10.7355 44.7666 11.2098 44.7666 11.7134Z" fill="black"/>
    <path d="M7.52335 34.1905C7.52335 31.7347 7.52335 29.3083 7.52335 26.8635C7.61544 26.8635 7.69647 26.8635 7.77383 26.8635C19.7671 26.8635 31.7604 26.8635 43.7536 26.8635C45.6948 26.8635 47.2529 28.2128 47.4629 30.1392C47.6839 32.1391 46.2952 33.7604 44.5603 34.1133C44.2988 34.1648 44.0262 34.1905 43.7573 34.1905C31.7456 34.1942 19.7339 34.1942 7.72226 34.1942C7.66332 34.1905 7.60071 34.1905 7.52335 34.1905ZM26.6772 28.5657C20.9679 28.5657 15.2549 28.5657 9.54556 28.5657C9.49031 28.5657 9.43506 28.5731 9.37981 28.5657C9.2472 28.551 9.21405 28.6135 9.21405 28.7348C9.21773 29.9296 9.21773 31.1245 9.21405 32.3156C9.21405 32.4553 9.26562 32.5031 9.39822 32.4847C9.43874 32.481 9.48294 32.4847 9.52714 32.4847C20.8942 32.4847 32.2613 32.4847 43.6247 32.4847C43.7242 32.4847 43.8199 32.4847 43.9194 32.4847C45.0686 32.4553 45.9821 31.3156 45.7537 30.187C45.5585 29.2017 44.7813 28.5657 43.772 28.5657C38.0738 28.5657 32.3755 28.5657 26.6772 28.5657Z" fill="black"/>
    <path d="M10.2675 31.3633C10.2675 31.242 10.2675 31.1464 10.2675 31.0508C10.2675 30.6465 10.2712 30.2421 10.2638 29.8377C10.2601 29.7016 10.3043 29.6428 10.4443 29.6612C10.4848 29.6649 10.529 29.6612 10.5732 29.6612C21.6014 29.6612 32.6333 29.6612 43.6615 29.6612C43.7757 29.6612 43.8973 29.6649 44.0078 29.6906C44.4314 29.7825 44.7224 30.1832 44.6745 30.595C44.6266 31.0361 44.273 31.356 43.831 31.3633C43.7757 31.3633 43.7205 31.3633 43.6652 31.3633C32.6296 31.3633 21.5941 31.3633 10.5585 31.3633C10.4738 31.3633 10.3891 31.3633 10.2675 31.3633Z" fill="black"/>
    <path d="M27.5208 39.7529C22.1467 39.7529 16.7725 39.7529 11.3984 39.7529C11.2769 39.7529 11.1516 39.7529 11.0301 39.7419C10.6065 39.7051 10.2786 39.3522 10.2676 38.9184C10.2565 38.5103 10.5586 38.139 10.9638 38.0692C11.0669 38.0508 11.17 38.0471 11.2732 38.0471C22.1025 38.0471 32.9281 38.0471 43.7574 38.0471C43.9084 38.0471 44.0668 38.0618 44.2105 38.1096C44.6009 38.2383 44.8109 38.6169 44.7556 39.0397C44.7077 39.411 44.3836 39.7124 43.9931 39.7419C43.8789 39.7529 43.7611 39.7529 43.6432 39.7529C38.2691 39.7529 32.8949 39.7529 27.5208 39.7529Z" fill="black"/>
    <path d="M27.484 21.2791C32.906 21.2791 38.3317 21.2791 43.7537 21.2828C43.9084 21.2828 44.0742 21.3048 44.2178 21.3636C44.5678 21.507 44.774 21.9077 44.704 22.2643C44.6267 22.6724 44.3099 22.9555 43.9084 22.9812C43.8421 22.9849 43.7721 22.9849 43.7058 22.9849C32.8949 22.9849 22.0877 22.9849 11.2768 22.9849C11.1553 22.9849 11.03 22.9812 10.9122 22.9518C10.4922 22.8489 10.2307 22.4629 10.2786 22.0438C10.3302 21.61 10.6727 21.2938 11.1037 21.2828C11.17 21.2828 11.24 21.2828 11.3063 21.2828C16.6988 21.2791 22.0914 21.2791 27.484 21.2791Z" fill="black"/>
    <g style="transform:translateY(8px)">
        <path d="M17.4871 48.7041C17.3237 48.4642 17.0855 48.3442 16.7726 48.3442C16.6752 48.3442 16.5796 48.3581 16.4857 48.3859C16.3918 48.4103 16.3067 48.4503 16.2302 48.5059C16.1571 48.5581 16.098 48.6276 16.0528 48.7145C16.0076 48.798 15.985 48.8971 15.985 49.0118C15.985 49.1787 16.032 49.3091 16.1259 49.403C16.2197 49.4934 16.3362 49.5681 16.4753 49.6272C16.6144 49.6863 16.7656 49.7402 16.929 49.7889C17.0959 49.8341 17.2489 49.8967 17.388 49.9767C17.5271 50.0531 17.6436 50.1557 17.7374 50.2844C17.8313 50.413 17.8782 50.5886 17.8782 50.8111C17.8782 50.978 17.8417 51.1293 17.7687 51.2649C17.6992 51.397 17.6053 51.5083 17.4871 51.5987C17.3723 51.6891 17.242 51.7586 17.0959 51.8073C16.9534 51.856 16.8091 51.8803 16.663 51.8803C16.437 51.8803 16.2215 51.8386 16.0163 51.7551C15.8147 51.6682 15.6426 51.5274 15.5 51.3327L15.839 51.0875C15.919 51.2231 16.0302 51.3327 16.1728 51.4161C16.3153 51.4961 16.484 51.5361 16.6787 51.5361C16.7726 51.5361 16.8664 51.5222 16.9603 51.4944C17.0542 51.4631 17.1377 51.4196 17.2107 51.364C17.2872 51.3049 17.3497 51.2336 17.3984 51.1501C17.4471 51.0667 17.4714 50.9711 17.4714 50.8633C17.4714 50.7346 17.4436 50.6286 17.388 50.5451C17.3358 50.4582 17.2646 50.3869 17.1742 50.3313C17.0872 50.2722 16.9864 50.2235 16.8717 50.1853C16.7604 50.147 16.6439 50.1088 16.5222 50.0705C16.404 50.0323 16.2875 49.9888 16.1728 49.9401C16.0615 49.8915 15.9607 49.8306 15.8703 49.7576C15.7834 49.6811 15.7121 49.5872 15.6565 49.476C15.6043 49.3612 15.5782 49.2187 15.5782 49.0483C15.5782 48.871 15.6113 48.7163 15.6773 48.5841C15.7469 48.452 15.8373 48.3425 15.9485 48.2556C16.0633 48.1686 16.1919 48.1043 16.3345 48.0626C16.477 48.0209 16.6231 48 16.7726 48C16.9812 48 17.1707 48.033 17.3411 48.0991C17.5114 48.1652 17.6696 48.2816 17.8157 48.4485L17.4871 48.7041Z" fill="white"/>
        <path d="M19.959 48.0939H20.3345V49.695H22.3477V48.0939H22.7232V51.7864H22.3477V50.0392H20.3345V51.7864H19.959V48.0939Z" fill="white"/>
        <path d="M28.2358 49.9401C28.2358 49.7281 28.201 49.5264 28.1315 49.3352C28.0619 49.1404 27.9611 48.9701 27.829 48.824C27.7003 48.678 27.5421 48.5615 27.3544 48.4746C27.1666 48.3877 26.9545 48.3442 26.7181 48.3442C26.4816 48.3442 26.2695 48.3877 26.0818 48.4746C25.894 48.5615 25.7341 48.678 25.602 48.824C25.4733 48.9701 25.3742 49.1404 25.3047 49.3352C25.2351 49.5264 25.2004 49.7281 25.2004 49.9401C25.2004 50.1522 25.2351 50.3556 25.3047 50.5504C25.3742 50.7416 25.4733 50.9102 25.602 51.0563C25.7341 51.2023 25.894 51.3188 26.0818 51.4057C26.2695 51.4926 26.4816 51.5361 26.7181 51.5361C26.9545 51.5361 27.1666 51.4926 27.3544 51.4057C27.5421 51.3188 27.7003 51.2023 27.829 51.0563C27.9611 50.9102 28.0619 50.7416 28.1315 50.5504C28.201 50.3556 28.2358 50.1522 28.2358 49.9401ZM28.6426 49.9401C28.6426 50.2218 28.5939 50.4808 28.4965 50.7173C28.3992 50.9537 28.2636 51.1588 28.0897 51.3327C27.9194 51.503 27.716 51.6369 27.4795 51.7343C27.2466 51.8316 26.9927 51.8803 26.7181 51.8803C26.4434 51.8803 26.1878 51.8316 25.9514 51.7343C25.7184 51.6369 25.515 51.503 25.3412 51.3327C25.1708 51.1588 25.037 50.9537 24.9396 50.7173C24.8422 50.4808 24.7936 50.2218 24.7936 49.9401C24.7936 49.6585 24.8422 49.3995 24.9396 49.163C25.037 48.9266 25.1708 48.7232 25.3412 48.5528C25.515 48.379 25.7184 48.2434 25.9514 48.146C26.1878 48.0487 26.4434 48 26.7181 48C26.9927 48 27.2466 48.0487 27.4795 48.146C27.716 48.2434 27.9194 48.379 28.0897 48.5528C28.2636 48.7232 28.3992 48.9266 28.4965 49.163C28.5939 49.3995 28.6426 49.6585 28.6426 49.9401Z" fill="white"/>
        <path d="M31.0379 51.4422H31.7681C32.0497 51.4422 32.2931 51.4005 32.4982 51.317C32.7069 51.2301 32.879 51.1171 33.0146 50.978C33.1536 50.8355 33.2562 50.6755 33.3223 50.4982C33.3883 50.3174 33.4214 50.1314 33.4214 49.9401C33.4214 49.7489 33.3883 49.5646 33.3223 49.3873C33.2562 49.2065 33.1536 49.0466 33.0146 48.9075C32.879 48.7649 32.7069 48.6519 32.4982 48.5685C32.2931 48.4816 32.0497 48.4381 31.7681 48.4381H31.0379V51.4422ZM30.6624 48.0939H31.888C32.1175 48.0939 32.347 48.1321 32.5765 48.2086C32.8094 48.2851 33.018 48.4016 33.2023 48.5581C33.3901 48.711 33.5413 48.904 33.6561 49.137C33.7708 49.3664 33.8282 49.6342 33.8282 49.9401C33.8282 50.2496 33.7708 50.5191 33.6561 50.7485C33.5413 50.978 33.3901 51.171 33.2023 51.3275C33.018 51.4804 32.8094 51.5952 32.5765 51.6717C32.347 51.7482 32.1175 51.7864 31.888 51.7864H30.6624V48.0939Z" fill="white"/>
        <path d="M39.0932 49.9401C39.0932 49.7281 39.0584 49.5264 38.9889 49.3352C38.9193 49.1404 38.8185 48.9701 38.6864 48.824C38.5577 48.678 38.3995 48.5615 38.2118 48.4746C38.024 48.3877 37.8119 48.3442 37.5755 48.3442C37.3391 48.3442 37.127 48.3877 36.9392 48.4746C36.7515 48.5615 36.5915 48.678 36.4594 48.824C36.3307 48.9701 36.2316 49.1404 36.1621 49.3352C36.0926 49.5264 36.0578 49.7281 36.0578 49.9401C36.0578 50.1522 36.0926 50.3556 36.1621 50.5504C36.2316 50.7416 36.3307 50.9102 36.4594 51.0563C36.5915 51.2023 36.7515 51.3188 36.9392 51.4057C37.127 51.4926 37.3391 51.5361 37.5755 51.5361C37.8119 51.5361 38.024 51.4926 38.2118 51.4057C38.3995 51.3188 38.5577 51.2023 38.6864 51.0563C38.8185 50.9102 38.9193 50.7416 38.9889 50.5504C39.0584 50.3556 39.0932 50.1522 39.0932 49.9401ZM39.5 49.9401C39.5 50.2218 39.4513 50.4808 39.354 50.7173C39.2566 50.9537 39.121 51.1588 38.9472 51.3327C38.7768 51.503 38.5734 51.6369 38.337 51.7343C38.104 51.8316 37.8502 51.8803 37.5755 51.8803C37.3008 51.8803 37.0453 51.8316 36.8088 51.7343C36.5759 51.6369 36.3725 51.503 36.1986 51.3327C36.0282 51.1588 35.8944 50.9537 35.797 50.7173C35.6997 50.4808 35.651 50.2218 35.651 49.9401C35.651 49.6585 35.6997 49.3995 35.797 49.163C35.8944 48.9266 36.0282 48.7232 36.1986 48.5528C36.3725 48.379 36.5759 48.2434 36.8088 48.146C37.0453 48.0487 37.3008 48 37.5755 48C37.8502 48 38.104 48.0487 38.337 48.146C38.5734 48.2434 38.7768 48.379 38.9472 48.5528C39.121 48.7232 39.2566 48.9266 39.354 49.163C39.4513 49.3995 39.5 49.6585 39.5 49.9401Z" fill="white"/>
    </g>
</svg>