<svg enable-background="new 0 0 512 135.1" viewBox="0 0 512 135.1" xmlns="http://www.w3.org/2000/svg">
    <path d="m9.9 2.5h113.7c4.6 0 8.4 4.1 8.4 9.1v112.3c0 5-3.7 9.1-8.4 9.1h-113.7c-4.6 0-8.4-4.1-8.4-9.1v-112.3c0-5 3.8-9.1 8.4-9.1z"
          fill="#e60f05"/>
    <g fill="#fff">
        <path d="m93.6 85.9c-1.1-1.1-2.4-1.8-3.9-2.1s-3-.1-4.4.4c-1.4.6-2.6 1.5-3.4 2.8-.8 1.2-1.3 2.7-1.3 4.2 0 1 .2 2 .6 2.9s.9 1.8 1.6 2.5 1.5 1.3 2.5 1.6c.9.4 1.9.6 2.9.6 1.5 0 3-.4 4.2-1.3 1.2-.8 2.2-2 2.8-3.4s.7-2.9.4-4.4c-.2-1.4-.9-2.7-2-3.8zm-5.3 9.1c-2 0-3.7-1.7-3.7-3.7s1.7-3.7 3.7-3.7 3.8 1.7 3.8 3.7-1.8 3.7-3.8 3.7z"/>
        <path d="m107 81.5h-2.2c-2 0-3-.9-3.9-1.9-1.6-1.8-3.5-3.2-5.7-4.2s-4.5-1.4-6.9-1.4h-61.2c-.2 0-.4.1-.6.2s-.3.2-.5.3c-.1.1-.2.3-.3.5s-.2.4-.2.6v2.8 7.3c0 1.1-.9.7-.9 2.5v1c0 1.2.7 1.9 1.8 1.9h2c.3 0 1-.2 1-1 0-6.2 5.1-11.3 11.1-11.3s11.3 4.8 11.3 11.3c0 .6.4.9.9.9h23.3c.6 0 1-.4 1-1 0-5.9 4.7-11.3 11.3-11.3 6.2 0 11.2 5.1 11.2 11.3 0 .4.2 1 1 1h6.6c1 0 1.9-1 1.9-1.9v-5.6c-.2-1.3-.8-2-2-2z"/>
        <path d="m45.9 85.9c-1.1-1.1-2.4-1.8-3.9-2.1s-3-.1-4.4.4c-1.4.6-2.6 1.5-3.4 2.8-.8 1.2-1.3 2.7-1.3 4.2 0 1 .2 2 .6 2.9s.9 1.8 1.6 2.5 1.5 1.3 2.5 1.6c.9.4 1.9.6 2.9.6 1.5 0 3-.4 4.2-1.3 1.2-.8 2.2-2 2.8-3.4s.7-2.9.4-4.4c-.2-1.4-.9-2.7-2-3.8zm-5.3 9.1c-2 0-3.7-1.7-3.7-3.7s1.7-3.7 3.7-3.7 3.8 1.7 3.8 3.7-1.8 3.7-3.8 3.7z"/>
        <path d="m25.9 68.3c.1.2.3.3.5.4s.4.1.6.1h61.2c5.3-.1 10.5 2 14.3 5.6.6.6 1.4 1.9 2.6 1.9h1.2c.6 0 .8-.3.8-1v-8.7c0-12.2-7.4-22-20-26.8-13.1-5.2-44.3-3.2-56.9.1-2 .5-4.7 1.5-4.7 5.3v20l.1 1.9c-.1.5.1.9.3 1.2zm50.8-21c0-.6.2-1 1-1h3.9c9.4 0 15.8 6.4 19.3 15.9.2.5.1 1.3-.9 1.3h-22.3c-.6 0-1-.6-1-1zm-22.8 0c0-.1 0-.3.1-.4 0-.1.1-.2.2-.3s.2-.2.3-.2.2-.1.4-.1h16.5c.6 0 1 .4 1 1v15.1c0 .5-.4 1-1 1h-16.6c-.5 0-1-.2-1-1v-15.1zm-23.1 0c0-.2 0-1 .9-1h16.9c.6 0 1 .4 1 .9v15.3c0 .3-.2.9-1 .9h-16.9c-.7 0-.9-.6-.9-1z"/>
    </g>
    <path d="m166.2 37.9c-.1 0-.2 0-.3.1-.1 0-.2.1-.2.2-.1.1-.1.2-.2.2 0 .1-.1.2-.1.3v44.6c0 5.4 1.5 9.3 4.6 11.7 3.3 2.7 8.6 3.3 14.7 1.9.2 0 .3-.1.4-.3.1-.1.2-.3.2-.5l-.1-7.6c0-.1 0-.2-.1-.3 0-.1-.1-.2-.2-.3s-.2-.1-.3-.1-.2 0-.3 0c-2.4.5-4.2.2-5.5-.8-1.4-1.1-2-3.1-2-6v-42.3c0-.2-.1-.4-.2-.5s-.3-.2-.5-.2h-9.9z"
          fill="#fff"/>
    <path d="m209.3 50.7c-6.6 0-12 2.3-16.1 6.8s-6.2 10.1-6.2 16.7c0 6.8 2.1 12.4 6.2 16.9 4.1 4.4 9.6 6.7 16.3 6.7 5.1 0 9.6-1.4 13.4-4.2 3.7-2.7 6.5-6.6 7.8-11.1 0-.1 0-.2 0-.3s-.1-.2-.1-.3c-.1-.1-.1-.2-.2-.2s-.2-.1-.3-.1h-10.1c-.1 0-.3 0-.4.1s-.2.2-.2.3c-.7 1.8-2 3.3-3.7 4.2-1.8 1.1-3.8 1.6-5.9 1.6-3.3 0-5.9-.9-7.9-2.9-1.9-1.9-3.1-4.3-3.4-6.9v-.2h32.5c.2 0 .3-.1.5-.2.1-.1.2-.3.2-.5l.1-3.1c0-6.6-2.1-12.2-6.1-16.6-4.5-4.5-9.8-6.7-16.4-6.7zm10.7 18.3h-21.6l.1-.2c.5-2.3 1.7-4.4 3.5-6 2-1.8 4.4-2.6 7.4-2.6s5.5.9 7.4 2.6c1.7 1.6 2.9 3.7 3.3 6z"
          fill="#fff"/>
    <path d="m442.7 86.8c-6.9 0-12.4-5.6-12.4-12.4s5.6-12.4 12.4-12.4 12.4 5.6 12.4 12.4-5.6 12.4-12.4 12.4zm0-35.8c-9.5 0-17.8 5.6-21.6 14.4-1.8 4.2-2.2 8.9-1.3 13.5.9 4.5 3.1 8.6 6.4 11.9s7.4 5.4 11.9 6.4c4.5.9 9.2.4 13.5-1.3 4.3-1.8 7.9-4.8 10.5-8.6 2.5-3.9 3.9-8.3 3.9-12.9-.1-12.8-10.2-23.4-23.3-23.4zm63.9 4.9c-2.9-3.3-7.1-4.9-12.4-4.9-3.3 0-6.3.7-8.7 2-1.3.8-2.5 1.8-3.6 2.9l-.3.3v-3.6c0-.1-.1-.3-.2-.4s-.3-.2-.5-.2h-9.2c-.1 0-.3.1-.4.2s-.2.3-.2.4v43.3c0 .1 0 .2.1.3 0 .1.1.2.2.2.1.1.3.2.4.2h10c.1 0 .4-.1.4-.2.2-.1.2-.3.2-.5v-25.1c0-3 .9-5.6 2.5-7.3 1.7-1.8 4-2.7 7-2.7 2.7 0 4.7.8 6 2.4s2 3.9 2 6.8v25.9c0 .2 0 .4.1.5.2.1.4.2.6.2h9.8c.2 0 .4-.1.5-.2l.2-.2c0-.1.1-.2.1-.3v-27.2c-.2-5.3-1.7-9.6-4.6-12.8zm-103.2 17.6c0 7.1-4.6 12.4-11.4 12.4-6.6 0-11.4-5.1-11.4-12.4 0-6.9 4.1-12.4 11.4-12.4 7 .1 11.4 5.3 11.4 12.4zm10.1-21.5h-9.2c-.1 0-.2 0-.3.1-.1 0-.2.1-.2.2-.1.1-.2.3-.2.4v4.1l-.3-.3c-3.1-3.6-7.6-5.4-13.4-5.4-12.6 0-20.6 9.8-20.6 22.5 0 6.3 1.9 11.7 5.6 15.9 3.7 4.3 8.8 6.5 15 6.5 5.4 0 9.7-1.7 12.7-5l.3-.4v4.7c0 5.9-4.8 10.5-10.3 10.5-5.6 0-8.3-3.3-9.6-5.7-.3-.5-.4-.6-.7-.5-1 .5-8.6 4.5-9 4.7-.2.1-.2.4-.1.6 3.1 6.9 10 11.3 19.5 11.3 11.9 0 21.5-8.4 21.5-22.3v-41.3c0-.1 0-.3-.2-.4s-.3-.2-.5-.2zm-60.3 22.3c0 7.6-4.2 13.2-11.5 13.2s-11.5-5.9-11.5-13.2c0-7.1 4.1-13.1 11.5-13.1 7.1 0 11.5 5.3 11.5 13.1zm10.2-22.2h-9.2c-.1 0-.3.1-.5.2-.1.1-.1.3-.1.4v4.1l-.4-.3c-3-3.6-7.6-5.4-13.6-5.4-12.9 0-20.5 10-20.5 23.2s7.6 23.3 20.5 23.3c5.9 0 10.6-1.8 13.6-5.4l.4-.4v4.1c0 .2.1.3.1.5.2.1.4.2.5.2h9.2c.2 0 .4-.1.4-.2.2-.1.2-.3.2-.5v-43.2c0-.1 0-.3-.2-.4-.1 0-.2-.2-.4-.2zm-43.9.5c0-.1-.1-.1-.1-.3-.1-.1-.2-.2-.3-.2-.1-.1-.2-.1-.3-.1h-10.1c-.1 0-.2 0-.3.1-.2.1-.2.2-.3.4l-8.9 28.5-9-28.4c-.1-.2-.1-.3-.3-.4-.1 0-.2-.1-.4-.1h-9.5c-.2 0-.3.1-.4.1-.1.1-.2.2-.2.4l-9.3 28.8-9.1-28.9c0-.2-.1-.3-.2-.4-.1 0-.3-.1-.4-.1h-10.3c-.1 0-.2 0-.4.1-.1 0-.1.1-.1.2-.1.1-.1.2-.1.3v.4l15.1 43.2c0 .1.1.2.2.3.2.1.3.1.4.1h9.2.2c.1 0 .1-.1.2-.1s.1-.1.1-.1.1-.1.1-.2l9.4-28.2 9.3 28.1c0 .1.1.3.2.4.1 0 .3.1.4.1h9.3c.2 0 .4-.1.4-.1.1-.1.2-.2.3-.4l15.2-43.1z"
          fill="#fff"/>
</svg>