<?xml version="1.0" encoding="utf-8"?>
<!-- Generator: Adobe Illustrator 26.0.3, SVG Export Plug-In . SVG Version: 6.00 Build 0)  -->
<svg version="1.1" id="Calque_1" xmlns="http://www.w3.org/2000/svg" xmlns:xlink="http://www.w3.org/1999/xlink" x="0px" y="0px"
	 viewBox="0 0 265.3 132.2" style="enable-background:new 0 0 265.3 132.2;" xml:space="preserve">
<style type="text/css">
	.st0{fill:#FFFFFF;}
</style>
<g id="Calque_2_00000057147372089318704690000014098770634987368874_">
	<g id="Calque_1-2">
		<path class="st0" d="M26.5,116c0,0.5-0.1,1.1-0.3,1.6c-0.2,0.5-0.5,0.9-0.8,1.3c-0.4,0.4-0.8,0.7-1.3,0.9c-0.5,0.2-1,0.3-1.5,0.3
			c-1,0-2-0.4-2.7-1.1c-0.8-0.8-1.2-1.8-1.2-2.9v-10.5h-4.2V116c0,0.5-0.1,1.1-0.3,1.6c-0.2,0.5-0.5,0.9-0.8,1.3
			c-0.4,0.4-0.8,0.7-1.3,0.9c-0.5,0.2-1,0.3-1.5,0.3c-0.5,0-1.1-0.1-1.5-0.3c-0.5-0.2-0.9-0.5-1.3-0.9c-0.4-0.4-0.7-0.8-0.8-1.3
			c-0.2-0.5-0.3-1-0.3-1.6v-10.5H0v4.3h2.3v6.2c0,3.3,1.9,6.3,4.9,7.6c1,0.4,2.1,0.7,3.2,0.7c1.2,0,2.3-0.2,3.3-0.7
			c1-0.5,1.9-1.2,2.7-2c0.8,0.8,1.7,1.5,2.7,2c1.1,0.5,2.2,0.7,3.4,0.7c1.1,0,2.2-0.2,3.1-0.7c1-0.4,1.8-1,2.6-1.8
			c0.7-0.8,1.3-1.6,1.7-2.6c0.4-1,0.7-2.1,0.6-3.2v-6.2h2.3v-4.3h-6.4V116z"/>
		<path class="st0" d="M54,114.3c0-1.3-0.3-2.6-0.8-3.8c-0.5-1.1-1.2-2.2-2.1-3.1c-0.9-0.9-1.9-1.6-3.1-2.1c-2.4-1-5.2-1-7.6,0
			c-1.1,0.5-2.2,1.2-3.1,2.1c-1.8,1.8-2.9,4.3-2.9,6.9c0,1.3,0.2,2.6,0.7,3.8c0.5,1.2,1.1,2.2,2,3.1c0.9,0.9,1.9,1.6,3.1,2.1
			c1.3,0.5,2.6,0.8,4,0.8c2,0,4-0.6,5.6-1.8v1h6.4V119H54V114.3z M49.4,116.6c-0.3,0.7-0.7,1.3-1.2,1.8c-0.5,0.5-1.1,0.9-1.8,1.2
			c-0.7,0.3-1.4,0.4-2.2,0.4c-0.7,0-1.5-0.2-2.2-0.4c-0.7-0.3-1.3-0.7-1.8-1.2c-0.5-0.5-0.9-1.1-1.2-1.8c-0.6-1.4-0.6-3,0-4.3
			c0.6-1.4,1.6-2.4,3-3c1.4-0.6,3-0.6,4.4,0c0.7,0.3,1.3,0.7,1.8,1.2c0.5,0.5,0.9,1.1,1.2,1.8c0.3,0.7,0.5,1.4,0.5,2.2
			C49.9,115.1,49.7,115.9,49.4,116.6L49.4,116.6z"/>
		<path class="st0" d="M75.5,109.6c-0.4-1-1-1.8-1.8-2.6c-0.7-0.7-1.6-1.3-2.6-1.8c-1-0.4-2-0.6-3.1-0.7c-1.5,0-3,0.6-4,1.8v-1h-6.4
			v4.3h2.3v13.5h4.2v-10.6c0-0.5,0.1-1,0.3-1.5c0.2-0.5,0.5-0.9,0.8-1.3c0.4-0.4,0.8-0.7,1.3-0.9c0.5-0.2,1-0.3,1.5-0.3
			c0.5,0,1.1,0.1,1.5,0.3c0.5,0.2,0.9,0.5,1.3,0.8c0.4,0.4,0.7,0.8,0.8,1.3c0.2,0.5,0.3,1,0.3,1.5v10.6h4.2v-10.6
			C76.1,111.6,75.9,110.6,75.5,109.6z"/>
		<path class="st0" d="M99.2,114.3c0-1.3-0.3-2.6-0.8-3.8c-0.5-1.1-1.2-2.2-2.1-3.1c-0.9-0.9-1.9-1.6-3.1-2.1c-2.4-1-5.2-1-7.6,0
			c-1.2,0.5-2.2,1.2-3.1,2.1c-1.8,1.8-2.9,4.3-2.9,6.9c0,1.3,0.2,2.6,0.7,3.8c0.5,1.2,1.1,2.2,2,3.1c0.9,0.9,1.9,1.6,3.1,2.1
			c1.3,0.5,2.6,0.8,4,0.8c2,0,4-0.6,5.6-1.8v1h6.4V119h-2.3V114.3z M94.6,116.6c-0.3,0.7-0.7,1.3-1.2,1.8c-0.5,0.5-1.1,0.9-1.8,1.2
			c-0.7,0.3-1.4,0.4-2.2,0.4c-0.7,0-1.5-0.2-2.2-0.4c-0.7-0.3-1.3-0.7-1.8-1.2c-0.5-0.5-0.9-1.1-1.2-1.8c-0.6-1.4-0.6-3,0-4.3
			c0.3-0.7,0.7-1.3,1.2-1.8c0.5-0.5,1.1-0.9,1.8-1.2c1.4-0.6,3-0.6,4.4,0c0.7,0.3,1.3,0.7,1.8,1.2c0.5,0.5,0.9,1.1,1.2,1.8
			c0.3,0.7,0.5,1.4,0.5,2.2C95,115.1,94.9,115.9,94.6,116.6z"/>
		<path class="st0" d="M118.8,106.7c-1.6-1.3-3.5-2.1-5.6-2.1c-1.3,0-2.6,0.3-3.8,0.8c-1.1,0.5-2.2,1.2-3.1,2.1
			c-0.9,0.9-1.6,1.9-2.1,3.1c-1,2.4-1,5.2,0,7.6c1,2.3,2.8,4.2,5.2,5.2c1.2,0.5,2.5,0.8,3.8,0.8c1.3,0,2.6-0.2,3.8-0.8
			c1.1-0.5,2.2-1.2,3.1-2.1c0.9-0.9,1.6-1.9,2.1-3.1c0.5-1.2,0.7-2.5,0.7-3.8v-11.7h2.3v-4.3h-6.4L118.8,106.7z M118.4,116.5
			c-0.6,1.3-1.7,2.4-3,3c-1.4,0.6-3,0.6-4.3,0c-1.3-0.6-2.4-1.7-3-3c-0.6-1.4-0.6-3,0-4.3c0.6-1.3,1.7-2.4,3-3c1.4-0.6,3-0.6,4.3,0
			c1.3,0.6,2.4,1.7,3,3c0.3,0.7,0.5,1.4,0.4,2.2C118.8,115.1,118.7,115.8,118.4,116.5z"/>
		<path class="st0" d="M144.2,110.8c-0.5-1.2-1.1-2.3-2-3.2c-1.8-2-4.4-3.1-7.1-3c-1.3,0-2.6,0.3-3.8,0.8c-1.2,0.5-2.2,1.2-3.1,2.1
			c-0.9,0.9-1.6,1.9-2.1,3.1c-0.5,1.2-0.8,2.5-0.7,3.8c0,1.3,0.2,2.6,0.7,3.8c0.5,1.2,1.2,2.2,2.1,3.1c0.9,0.9,1.9,1.6,3.1,2.1
			c1.2,0.5,2.5,0.8,3.8,0.8c1,0,2-0.1,3-0.4c2.1-0.6,3.9-1.9,5.1-3.6c0.7-1.1,1.3-2.2,1.6-3.5h-4.6c-0.4,1-1.1,1.9-2,2.4
			c-0.9,0.6-2.1,0.9-3.2,0.9c-1.4,0-2.8-0.6-3.9-1.6c-0.5-0.5-0.9-1.1-1.2-1.7c-0.3-0.6-0.5-1.4-0.5-2.1H145
			C144.9,113.3,144.7,112,144.2,110.8z M135.2,108.7c2.1-0.1,4,1.3,4.6,3.2h-9.4C131.3,109.9,133.1,108.7,135.2,108.7L135.2,108.7z"
			/>
		<polygon class="st0" points="160.6,105.4 155.5,117.2 150.3,105.4 145.4,105.4 145.4,109.7 147.6,109.7 153.6,123.3 157.3,123.3 
			163.2,109.7 165.5,109.7 165.5,105.4 		"/>
		<path class="st0" d="M177,124.6c-1.2,0-2.5-0.3-3.6-0.8c-1.1-0.5-2.1-1.3-2.9-2.2c-0.8-0.9-1.4-1.9-1.9-3.1
			c-0.4-1.1-0.7-2.3-0.7-3.6c0-1.3,0.2-2.5,0.6-3.7c0.4-1.1,1-2.2,1.8-3.1c0.8-0.9,1.7-1.6,2.7-2.1c1.1-0.5,2.2-0.8,3.4-0.8
			c0.8,0,1.6,0.1,2.3,0.4c0.7,0.2,1.4,0.6,2,0.9c0.6,0.4,1.2,0.8,1.7,1.4c0.5,0.5,0.9,1.1,1.3,1.7V98.1h1.8v23.7
			c0,0.6,0.2,0.9,0.8,0.9v1.6H186c-0.1,0-0.2,0-0.3,0c-0.5,0-0.9-0.2-1.2-0.6c-0.3-0.3-0.5-0.7-0.5-1.2v-2.1c-0.8,1.2-1.8,2.3-3.1,3
			C179.8,124.2,178.4,124.6,177,124.6z M177.3,123c0.7,0,1.4-0.1,2.1-0.4c1.5-0.5,2.7-1.5,3.7-2.7c0.4-0.6,0.7-1.2,0.8-1.9v-6.1
			c-0.3-0.7-0.7-1.3-1.1-1.9c-0.5-0.6-1-1.1-1.7-1.6c-0.6-0.4-1.3-0.8-2-1.1c-1.6-0.6-3.5-0.5-5,0.3c-0.9,0.4-1.6,1.1-2.3,1.8
			c-0.6,0.8-1.1,1.6-1.4,2.6c-0.3,1-0.5,2-0.5,3c0,1,0.2,2,0.6,3c0.4,0.9,0.9,1.8,1.6,2.5c0.7,0.7,1.5,1.3,2.4,1.8
			C175.3,122.7,176.3,123,177.3,123L177.3,123z"/>
		<path class="st0" d="M191.3,101.4v-3.3h1.8v3.3H191.3z M191.3,124.2v-18.6h1.8v18.6H191.3z"/>
		<path class="st0" d="M206.3,124.5c-1.2,0-2.4-0.3-3.6-0.8c-1.1-0.5-2-1.3-2.8-2.2c-0.8-0.9-1.4-1.9-1.8-3.1
			c-0.4-1.1-0.7-2.3-0.7-3.6c0-1.2,0.2-2.5,0.6-3.7c0.4-1.1,1-2.2,1.8-3.1c0.8-0.9,1.7-1.6,2.7-2.1c1.1-0.5,2.3-0.8,3.5-0.8
			c1.5,0,3,0.4,4.2,1.3c1.2,0.8,2.2,1.9,3.1,3.1v-4h1.6v19c0,1.2-0.2,2.3-0.7,3.3c-0.5,0.9-1.1,1.7-1.9,2.4
			c-0.8,0.6-1.8,1.1-2.8,1.4c-1.1,0.3-2.2,0.5-3.4,0.5c-1,0-2-0.1-2.9-0.3c-0.8-0.2-1.6-0.5-2.3-0.9c-0.6-0.4-1.2-0.8-1.8-1.4
			c-0.5-0.5-1-1.1-1.4-1.8l1.2-0.8c0.7,1.2,1.7,2.2,3,2.8c1.3,0.6,2.7,0.9,4.1,0.9c0.9,0,1.8-0.1,2.7-0.4c0.8-0.2,1.6-0.6,2.2-1.2
			c0.6-0.5,1.2-1.2,1.5-1.9c0.4-0.8,0.6-1.8,0.6-2.7v-4.1c-0.8,1.2-1.8,2.2-3.1,2.9C209,124.2,207.7,124.5,206.3,124.5z M206.7,123
			c0.8,0,1.6-0.2,2.3-0.4c0.7-0.3,1.4-0.7,2-1.2c0.6-0.4,1.1-1,1.5-1.6c0.4-0.5,0.6-1.1,0.7-1.8v-6.1c-0.3-0.7-0.7-1.4-1.1-2
			c-0.5-0.6-1-1.1-1.6-1.6c-0.6-0.4-1.3-0.8-2-1c-0.7-0.2-1.4-0.4-2.1-0.4c-1,0-2.1,0.2-3,0.7c-0.9,0.5-1.6,1.1-2.2,1.9
			c-0.6,0.8-1.1,1.7-1.4,2.6c-0.3,0.9-0.5,1.9-0.5,2.9c0,1,0.2,2,0.6,3c0.4,0.9,0.9,1.8,1.6,2.5c0.7,0.7,1.5,1.3,2.4,1.8
			C204.7,122.8,205.7,123,206.7,123z"/>
		<path class="st0" d="M220.7,101.4v-3.3h1.8v3.3H220.7z M220.7,124.2v-18.6h1.8v18.6H220.7z"/>
		<path class="st0" d="M236.4,123.3l-0.5,0.3c-0.3,0.2-0.6,0.3-0.9,0.4c-0.4,0.1-0.8,0.2-1.2,0.3c-0.5,0.1-0.9,0.2-1.4,0.2
			c-0.5,0-1-0.1-1.4-0.2c-0.4-0.1-0.8-0.4-1.2-0.6c-0.3-0.3-0.6-0.6-0.8-1c-0.2-0.5-0.3-0.9-0.3-1.4v-14h-2.6v-1.5h2.6v-6.5h1.8v6.4
			h4.4v1.5h-4.3v13.6c0,0.6,0.2,1.2,0.7,1.6c0.5,0.3,1,0.5,1.6,0.5c0.7,0,1.3-0.1,1.9-0.4c0.5-0.3,0.9-0.4,1-0.5L236.4,123.3z"/>
		<path class="st0" d="M244.2,124.6c-0.8,0-1.6-0.1-2.4-0.4c-0.7-0.3-1.4-0.7-2-1.2c-0.6-0.5-1-1.1-1.3-1.8
			c-0.3-0.7-0.5-1.5-0.5-2.3c0-0.8,0.2-1.5,0.6-2.2c0.4-0.7,0.9-1.3,1.6-1.7c0.7-0.5,1.6-0.9,2.4-1.2c1-0.3,2.1-0.4,3.2-0.4
			c1,0,2,0.1,3,0.3c0.9,0.2,1.9,0.4,2.7,0.7v-1.8c0.1-1.5-0.5-3.1-1.5-4.2c-1.1-1.1-2.6-1.6-4.1-1.6c-1,0-2,0.2-2.9,0.6
			c-1.1,0.4-2.1,1-3.1,1.7l-0.7-1.2c2-1.5,4.3-2.3,6.8-2.4c2-0.1,3.9,0.6,5.3,1.9c1.3,1.5,2,3.4,1.9,5.4v9.1c0,0.6,0.3,0.9,0.8,0.9
			v1.6h-0.4c-0.1,0-0.2,0-0.3,0c-0.4,0-0.9-0.2-1.1-0.5c-0.3-0.3-0.5-0.7-0.5-1.2v-1.5c-0.9,1.1-2,2-3.3,2.6
			C247.1,124.3,245.6,124.6,244.2,124.6z M244.5,123.2c1.3,0,2.6-0.3,3.8-0.8c1.1-0.4,2-1.2,2.7-2.1c0.3-0.4,0.5-0.9,0.6-1.4v-3.3
			c-0.9-0.3-1.8-0.6-2.7-0.8c-1-0.2-1.9-0.2-2.9-0.2c-0.9,0-1.7,0.1-2.6,0.3c-0.7,0.2-1.4,0.5-2,0.8c-0.5,0.3-0.9,0.8-1.2,1.3
			c-0.3,0.5-0.5,1.1-0.4,1.7c0,0.6,0.1,1.2,0.4,1.8c0.2,0.5,0.6,1,1,1.4c0.4,0.4,1,0.7,1.5,0.9C243.2,123,243.9,123.2,244.5,123.2z"
			/>
		<path class="st0" d="M259,98.1h1.8v22.5c0,0.6,0.2,1.2,0.6,1.7c0.4,0.4,1,0.6,1.6,0.6c0.3,0,0.6,0,1-0.1c0.3-0.1,0.7-0.1,1-0.3
			l0.4,1.4c-0.5,0.2-1,0.3-1.5,0.4c-0.5,0.1-1,0.2-1.5,0.2c-0.9,0-1.8-0.3-2.4-0.9c-0.6-0.7-1-1.5-0.9-2.4L259,98.1z"/>
		<path class="st0" d="M203.5,39c-6.4-6-14.3-10.1-22.9-11.8c-3-0.6-6-0.8-9.1-0.5c-4.9,0.4-9.6,1.8-13.9,4.1
			c-5.6,3.5-11.1,7.3-16.3,11.4L120.8,59c-8.4,6-16.1,7.8-23.1,6.5C89.8,64.1,86,59.2,85.2,58c-4.5-6-6.2-13.6-4.9-21
			C83,23.8,95.3,15.3,107,17.6c1.4,0.1,5.3,0.8,11.4,4.8l0.2,0.1c1.4,1.2,2.8,2.2,4.4,3.1c0.4,0.2,0.8,0.4,1.2,0.6
			c5.1,2.7,11,3.3,16.5,1.8c2.5-0.9,1.7-3.3,0.9-4.7c-8-12.9-17.5-18.7-27-21.5c-4.9-1.5-10-2.1-15-1.7c-11.7,0.9-22,6-29,14.6
			L69,16.9c-7.4,9.9-10,22.5-7.2,34.5l0.2,0.7c4,16.2,17.4,28.2,35.8,32c18.9,3.9,30.4-5.6,42.3-15.9c1.4-1.2,2.6-2.3,3.8-3.2
			c24.6-20.8,29.7-29.1,54-20.1c0.7,0.2,1.3,0.3,2,0.4c1.7,0.5,3.5-0.3,4.4-1.9C205,41.9,204.7,40.1,203.5,39z"/>
	</g>
</g>
</svg>
