<svg class="animated-shape" width="141" height="45" viewBox="0 0 141 45" fill="none" xmlns="http://www.w3.org/2000/svg">
    <path d="M135.285 41.9084H140.367V44.8217H131.887V33.493H135.285V41.9084Z" fill="#fff"></path>
    <path d="M118.246 39.1583C118.246 36.0034 120.543 33.3165 124.363 33.3165C128.182 33.3165 130.479 36.0034 130.479 39.1583C130.479 42.3132 128.181 45 124.363 45C120.545 45 118.246 42.3132 118.246 39.1583ZM127.081 39.1583C127.081 37.5725 126.093 36.2299 124.363 36.2299C122.632 36.2299 121.644 37.5725 121.644 39.1583C121.644 40.7441 122.632 42.0867 124.363 42.0867C126.093 42.0867 127.081 40.7441 127.081 39.1583Z" fill="#fff"></path>
    <path d="M105.172 39.1583C105.172 36.0034 107.469 33.3165 111.288 33.3165C115.108 33.3165 117.405 36.0034 117.405 39.1583C117.405 42.3132 115.106 45 111.288 45C107.47 45 105.172 42.3132 105.172 39.1583ZM114.007 39.1583C114.007 37.5725 113.019 36.2299 111.288 36.2299C109.558 36.2299 108.57 37.5725 108.57 39.1583C108.57 40.7441 109.558 42.0867 111.288 42.0867C113.019 42.0867 114.007 40.7441 114.007 39.1583Z" fill="#fff"></path>
    <path d="M100.366 44.8217V40.7757H97.0478V44.8217H93.6497V33.493H97.0478V38.0089H100.366V33.493H103.764V44.8217H100.366Z" fill="#fff"></path>
    <path d="M88.1328 33.3148C90.0101 33.3148 91.2877 34.0594 92.502 35.1271L90.5764 37.3276C89.8152 36.4697 88.909 36.2265 88.1328 36.2265C86.3688 36.2265 85.2194 37.5208 85.2194 39.1549C85.2194 40.789 86.3688 42.0833 88.1328 42.0833C88.909 42.0833 89.8152 41.8401 90.5764 40.9822L92.502 43.1826C91.2877 44.2504 90.0101 44.995 88.1328 44.995C84.3132 44.995 81.8213 42.3081 81.8213 39.1532C81.8213 35.9983 84.3132 33.3115 88.1328 33.3115V33.3148Z" fill="#fff"></path>
    <path d="M74.3621 40.824C74.5887 41.8601 75.2516 42.4098 76.3693 42.4098C77.1456 42.4098 77.6969 42.1516 77.6969 41.6002C77.6969 41.3254 77.552 40.9689 76.7425 40.7107L75.4648 40.226C74.9151 40.0477 72.1633 39.3198 72.1317 36.9078C72.1317 34.7224 73.9757 33.3148 76.4526 33.3148C78.5881 33.3148 79.9473 34.3659 80.5953 36.2598L77.8768 37.0361C77.6503 36.4048 77.3271 35.9034 76.5176 35.9034C75.9679 35.9034 75.4498 36.1299 75.4498 36.6147C75.4498 36.9378 75.6764 37.2293 76.3727 37.4725L77.6353 37.9089C80.1606 38.7834 80.9534 39.8828 81.0018 41.4853C81.0018 43.8973 78.833 44.9967 76.3743 44.9967C73.7524 44.9967 71.9734 43.734 71.632 41.452L74.3671 40.8206L74.3621 40.824Z" fill="#fff"></path>
    <path d="M109.093 28.1393V16.7057H117.406V19.6457H112.523V21.1316H116.785V23.7451H112.523V25.1993H117.406V28.1393H109.093Z" fill="#fff"></path>
    <path d="M96.4849 28.1393V16.7057H101.859C105.19 16.7057 107.674 19.2693 107.674 22.4225C107.674 25.5758 105.192 28.1393 101.859 28.1393H96.4849ZM99.9146 19.6457V25.1993H101.385C103.15 25.1993 104.244 24.1049 104.244 22.4225C104.244 20.7401 103.15 19.6291 101.385 19.6457H99.9146Z" fill="#fff"></path>
    <path d="M82.7175 22.4225C82.7175 19.2376 85.0362 16.5258 88.8908 16.5258C92.7453 16.5258 95.0657 19.2376 95.0657 22.4225C95.0657 25.6074 92.747 28.3193 88.8908 28.3193C85.0346 28.3193 82.7175 25.6074 82.7175 22.4225ZM91.6359 22.4225C91.6359 20.8218 90.6398 19.4659 88.8924 19.4659C87.1451 19.4659 86.149 20.8218 86.149 22.4225C86.149 24.0233 87.1451 25.3792 88.8924 25.3792C90.6398 25.3792 91.6359 24.0233 91.6359 22.4225Z" fill="#fff"></path>
    <path d="M77.9967 16.5258C79.8907 16.5258 81.1816 17.2771 82.4076 18.3548L80.4637 20.5769C79.6958 19.7107 78.7813 19.4659 77.9967 19.4659C76.2161 19.4659 75.0567 20.7718 75.0567 22.4225C75.0567 24.0733 76.2161 25.3792 77.9967 25.3792C78.7813 25.3792 79.6958 25.1344 80.4637 24.2682L82.4076 26.4903C81.1833 27.568 79.8924 28.3193 77.9967 28.3193C74.1422 28.3193 71.627 25.6074 71.627 22.4225C71.627 19.2376 74.1422 16.5258 77.9967 16.5258Z" fill="#fff"></path>
    <path d="M104.509 11.6602V0H109.989C113.387 0 115.919 2.61521 115.919 5.83009C115.919 9.04497 113.387 11.6602 109.989 11.6602H104.509ZM108.007 2.99833V8.66185H109.506C111.305 8.66185 112.421 7.54581 112.421 5.83009C112.421 4.11438 111.305 2.98168 109.506 2.99833H108.007Z" fill="#fff"></path>
    <path d="M97.9624 8.66185H103.193V11.6602H94.4644V0H97.9624V8.66185Z" fill="#fff"></path>
    <path d="M92.432 11.6602H88.934V0H92.432V11.6602Z" fill="#fff"></path>
    <path d="M82.5709 5.79678L84.1533 0H87.7513L84.0534 11.6602H81.3882L79.6891 5.98001L77.9901 11.6602H75.3249L71.627 0H75.225L76.8074 5.79678L78.4732 0.38312H80.9384L82.5709 5.79678Z" fill="#fff"></path>
    <path d="M35.0639 9.91113V26.4008C35.0639 26.4008 35.3438 34.814 43.3093 34.814C51.2749 34.814 51.7213 26.402 51.7213 26.402V24.8195" stroke="#F7146B" stroke-width="3" stroke-linecap="round" stroke-linejoin="round"></path>
    <path d="M12.9928 42.5597C14.413 42.9757 15.5991 43.1427 17.407 43.1427C24.5312 43.1427 27.8243 39.3915 29.4836 37.6458C29.9725 37.1314 30.3998 36.4797 30.8162 36.4797C31.2327 36.4797 32.1488 37.6458 32.1488 37.6458C34.0982 39.3915 37.0027 43.1427 43.809 43.1427C50.4041 43.1427 54.3321 40.1756 56.6594 36.8962" stroke="#F7146B" stroke-width="3" stroke-linecap="round" stroke-linejoin="round"></path>
    <path d="M5.91341 38.1455C2.15097 33.8373 1.66577 28.3573 1.66577 28.3573V21.2382" stroke="#F7146B" stroke-width="3" stroke-linecap="round" stroke-linejoin="round"></path>
    <path d="M18.2956 26.5686V8.93252C18.2956 8.93252 17.6241 1.49915 10.0778 1.49915C2.53148 1.49915 1.66577 8.93252 1.66577 8.93252V13.171" stroke="#F7146B" stroke-width="3" stroke-linecap="round" stroke-linejoin="round"></path>
    <path d="M18.2956 26.5686V8.93252C18.2956 8.93252 17.6241 1.49915 10.0778 1.49915C2.53148 1.49915 1.66577 8.93252 1.66577 8.93252V13.171" stroke="#F7146B" stroke-width="3" stroke-linecap="round" stroke-linejoin="round"></path>
    <path d="M59.8001 29.8167C59.9488 28.7702 59.9667 28.4009 59.9667 28.4009V5.15937C59.9667 5.15937 59.467 1.49915 55.7191 1.49915C52.3043 1.49915 51.638 5.15937 51.638 5.15937V16.4908" stroke="#F7146B" stroke-width="3" stroke-linecap="round" stroke-linejoin="round"></path>
    <path d="M43.3101 26.6519V8.7928C43.3101 8.7928 42.3872 1.58246 34.9806 1.58246C30.1696 1.58246 28.2404 4.40287 27.4015 6.4964" stroke="#F7146B" stroke-width="3" stroke-linecap="round" stroke-linejoin="round"></path>
    <path d="M10.0505 9.82788V26.2611C10.0505 26.2611 10.1903 34.7856 18.2956 34.7856C26.4008 34.7856 26.7352 26.3187 26.7352 26.3187V14.8251" stroke="#F7146B" stroke-width="3" stroke-linecap="round" stroke-linejoin="round"></path>
    <path d="M10.0505 9.82788V26.2611C10.0505 26.2611 10.1903 34.7856 18.2956 34.7856C26.4008 34.7856 26.7352 26.3187 26.7352 26.3187V14.8251" stroke="#F7146B" stroke-width="3" stroke-linecap="round" stroke-linejoin="round"></path>
    
</svg>