<svg version="1.2" xmlns="http://www.w3.org/2000/svg" viewBox="0 0 1548 792" width="1548" height="792"><style>.a{fill:#efda4e}.b{fill:#fff}.c{fill:#b5a53c}.d{fill:#fcfcfc}.e{fill:#323330}.f{fill:#b98f34}.g{fill:#ba8c33}.h{fill:#ba8b32}.i{fill:#fefefe}.j{fill:#efda4f}.k{fill:#edd952}</style><path class="a" d="m1467.8 588c-1.8-0.4-3.6-0.5-5.3-1.1-3.9-1.4-6.5-1.3-9 3-1.9 3.4-6.4 3.3-10 1.9-3.1-1.2-5.9-3.2-9-4.9 0.3 8.2 0.2 8.3-7.4 4.7-1.6-0.8-3-2.1-5.1-1.6-1.4-0.3-2.6-1.5-4-1.8-14.2-3.4-24.4-12.9-35.2-21.8-7-5.9-15.5-9.6-23.3-14.2-2.5-1.4-4.9-2.8-7.3-4.3-1.9-1.2-3.4-2.7-3-5.3 0.9-2.9 2.8-5.3 4.6-7.7 1.9-2.7 1.7-4.6-1.1-6.7-18.6-13.7-39.2-23.1-62.2-26.7-19.6-3.1-39.2-3.5-58.5 1.9-20.4 5.8-37.1 16.9-47.9 35.8-8.1 14-9.9 29.1-8.5 44.9 1.1 11.5 4.6 22.1 11.5 31.5 7.7 10.6 18.5 17.2 30.1 22.4 14.8 6.6 30.4 10.9 46.1 14.6 11.9 2.8 23.7 5.8 34.8 10.7 8.3 3.7 16.3 8.1 20.3 16.9 7.5 16.7-0.1 35.3-17.1 42.9-12.9 5.8-26.5 6-40.2 4.7-24.2-2.3-44.8-12.9-63.6-27.8-1-0.9-2.1-1.7-3.1-2.5-2.2-2-4.1-1.8-6 0.5-6.7 8.2-13.5 16.4-20.4 24.5-2.8 3.3-0.9 5.3 1.7 7.4 16.3 13.4 34.4 23.5 54.6 29.6 26.8 8 53.9 10.1 81.3 3.1 19.8-5 36.8-14.7 47.6-32.3 14.4-23.7 16-48.8 3.8-73.9-6-12.3-16.7-20.2-28.4-26.6-14.8-8-30.8-12.5-47-16.6-15.6-4-31.5-7.5-45.8-15.4-10.2-5.5-16.9-13.5-17.2-25.6-0.4-15.4 9.1-27.4 25.6-32.1 12.4-3.6 25-3.2 37.6-0.5 17.2 3.6 32.7 11.3 46.9 21.4 3.3 2.4 5.2 2.3 7.6-1.2 2.4-3.5 4.3-7.5 7.9-10.2 2.3-0.5 3.7 1.2 5 2.6 8.8 8.6 17.5 17.3 26.1 26 3.4 3.5 5.7 7.8 8.4 11.8 7 10.7 14.1 21.3 21.7 31.6 3.6 4.8 7.3 10 8.3 16.3 3.5 5.1 6.2 10.4 5.1 16.9-1 1.6 0 3.5-0.7 5.1q-0.5 8.6-1 17.1c0.8 2-0.3 4.2 0.7 6.2 0 1-0.1 2 0 2.9 0.4 4.3 0.2 7.5-5.7 5.1-3.3-1.4-4 1.8-4 3.9-0.1 5-0.9 9.9-1.1 14.8-0.4 8.8-2.7 17.2-3.2 25.9-0.2 2.6-1.9 2.4-3.6 1.8-1.8-0.7-3.5-1.8-5.2-2.7-2.7-1.2-2 0.8-1.9 2.1 0.7 1.7-0.2 3.6 0.7 5.2 0.8 6.3-0.9 12.1-3.1 17.9-0.9 2.3-2.4 4.1-4.8 2.1-2.6-2.2-3-0.5-3.4 1.4-1.7 8.6-5.7 16.6-5.6 25.6 0.1 2.2-0.9 2.9-3 2.8-1.1-0.1-2.3 0-3.5 0q-402.1 0-804.3 0c-4.3 0-8.6 0-13.6 0 2-7.8 3.7-15.3 5.9-22.5 0.7-2.4 0-2.6-1.7-2.8 0-3 2.4-1.8 3.7-2 11.1-1.3 22.1-3.5 32.5-7.7 45.3-18.6 71.6-52.8 80.6-100.5 5.6-29.9 1.6-59-11.7-86.6-6-12.5-13.8-23.9-23.8-33.6-1.8-1.8-4.6-3.1-4-6.4 3.7-7.6 5.9-15.8 7.8-23.9 2.1-8.9 6.5-15.6 13.1-21.5 6.7-6.1 6.4-6.3-1-11-0.7-0.5-1.5-0.9-2.2-1.2-3.8-1.6-4.6-3.4-3-7.9 5.5-15.8 13.8-29.8 24.1-42.8 2-2.5 2.8-4.9 0.7-7.9-2.8-4.1-2.4-8.1 0.4-12.4 2.2-3.4 3.7-7.4 5.1-11.3 3.3-9.1 9.8-15.1 17.7-20.4 16.2-11.1 30.6-24.4 44.1-39.1-6.6-2.7-13.5-0.5-20.3-2.5 13.5-13 27.9-24.2 42.4-35.6-3.8-3-8.8-3.4-12.6-6.7 6.2-5.3 12.4-10.4 18.4-15.7 7.2-6.3 10.5-15.4 15.4-23.3 0.9-1.4 1.7-2.9 2.9-4 14.2-14.3 27.9-29.2 45.5-40.3-5.8-4.7-10.9-9.1-16.5-13-2.6-1.9-5.2-3.8-1.4-7.8 3.8-3.9 6.2-9.3 10-13.2 3.8-4 9.6-4.9 14.5-7.1 14.2-6.4 27.4-14.6 41.5-22.7-4.6-2-6.6-5.8-10.5-8.6 19.7-5.3 39-10.7 60-11.9-3.6-6.4-6.8-12.2-10.1-18-1.3-2.2-2.3-3.1 1.6-4.2 20.1-5.7 40.6-8.8 61-12.8 4.5-0.9 9.2-0.9 13.4-3.3 1.1-4 0.1-8.1 0.5-12.1 0.1-1.5-0.7-3.3 0.8-4.6 14.3-10.7 30.5-17.7 47.1-23.8 6-2.1 12.4-1.9 18.5-3.1 4.8-0.9 9.6-1.4 14.8-2.1-4.4-4.1-8.9-7.2-13.3-10.4-2.7-1.8-4.2-3.7 0.1-5.8 3.3-1.7 6.6-3.8 9.3-6.2 3.1-2.9 6.4-3.3 10.2-2.6 9.9 1.9 19.8 4 29.8 5.5 7.7 1.2 15.4 1.7 23.2 2.4 0.9 0.1 2.1 0.5 2.6-0.7 0.5-1.1-0.6-1.8-1.2-2.4-4.1-4.3-8.9-7.9-12.1-14.1 15.5 4.2 31 6 44.6 14.4 11.2 6.8 22.8 12.9 33.8 19.9 16.6 10.7 32.2 22.6 44.6 38.5 7.9 10.2 17.5 19.1 25.3 29.4 10.9 14.4 21 29.4 31 44.4 8.9 13.5 21 23.3 34.7 31.3 8.1 4.8 15.1 10.7 22.2 16.7 9.8 8.6 20.6 16.2 27.7 27.5q7 11.1 13.7 22.4c1.2 2.1 2.6 3.8 4.2 5.5 17.5 18.4 37.9 33.1 58.7 47.5 9.5 6.5 19.3 12.3 30.1 16.1 10.2 3.6 16.3 11.1 22.7 19 9.5 11.7 16.4 24.9 24.3 37.5-2.3 3.1-5.3 2.3-8.1 1.2q-6.9-2.8-13.6-6.1c-3-1.5-5.7-1.5-8.7-0.3-5.9 2.3-11.6 4.9-16.8 8.6-6.4 4.4-10.4 4.1-16.5-0.9-2.6-2.1-4.8-5.2-8.6-2.3-2.3 1.8-1.5 5.5 1.3 9.9 4.9 7.4 11.6 12.7 18.9 17.4 9.9 6.5 16.9 14.8 19.4 26.7 0.7 3.4 0.1 6.5 0.1 9.8-0.1 3.6 0 7.1 0 10.6 0 0.6 0 1.3-0.1 2-3 17.6-0.8 13.1-14 21.8-2 1.3-4 2.5-5.7 4-15.4 14.1-34.2 22.5-53 30.5-17.2 7.2-35.4 8.2-53.7 2.5-9.6-3.1-19.7-2.4-29.6-2.8-1.4-0.1-3.5-0.1-3.6 1.8 0 1.6 2 2.2 3.4 2.5 7.6 1.9 15.2 3.7 22.8 5.7 3.5 0.3 7.1-0.1 10.6 0.3 14.6 5.7 28.8 5.3 43.6-0.4 12.3-4.9 25.5-7.7 37.8-12.6 7.3-2.9 14.1-1.2 20.7 1.7 4.1 1.8 5.2 1.4 6.2-2.9 1-3.9-0.1-7.6-1.3-11.2-2.7-7.8-1.7-12.4 4.8-17 7.8-5.4 11.8-12.4 11.4-21.9-0.1-3 1.1-5.9 0.9-8.9 0.1-3.3-0.1-6.5 0.2-9.8 1-4.6 1.8-9.3 5.7-12.6 1.3-1 2.3-2.5 4.2-2.1q0.8 8.5 1.5 17c0.4 1.6 0.4 3.2 0 4.9q-0.2 5.9-0.3 11.8c-0.9 1.6 0 3.5-0.7 5.2-2.5 12.3-7.7 23.4-14.1 34.1-4.6 7.7-9.5 15.1-14.4 22.6-0.8 1.3-1.7 2.5-1.7 4.1 0.3 9.1-0.9 18.3 0.7 27.3 0.7 4.1-0.3 8.4 0.9 12.4 0.2 0.5-0.2 1.5-0.6 1.8-5 3.9-4.5 9.3-3.6 14.6 0.4 2.4-1.1 1.9-2.3 2.1-2.1-1.1-2.5 0-2.6 1.8-0.2 1.7 0.5 3.6-0.6 5.2-3.9 0.3-7.6-1.9-11.6-1-2.2 0.4-4.9 0.3-4.4 3.8-1.1 1.6 0.3 3.6-1 5.2z"/><path fill-rule="evenodd" class="b" d="m636.4 730.6c-21.4 21-47.4 32.8-77.3 35.5-0.8 0.1-1.6 0.4-2.4 0.6q-11.8 0.1-23.6 0.2-0.7-0.4-1.3-0.4c-1.3-0.2-2.6 0.2-3.7-0.3-24-2.1-45.4-11-64.4-25.3-15-11.3-26.5-25.8-35.1-42.4-8-15.3-12.9-31.5-14.8-48.5-0.5-1.4 0-2.9-0.3-4.3q-0.1 0-0.1 0-0.1-0.5-0.3-0.9 0-12.3 0-24.7 0.3-0.6 0.4-1.2 0 0 0 0c0.2-1.3-0.2-2.7 0.3-3.9 1.5-18.6 7.2-36.2 16.5-52.1 19.2-33 47.2-55 85.3-62.8 4.1-0.9 8.3-1.5 12.4-2.3 1.4-0.6 2.9-0.1 4.4-0.4q0.5-0.1 0.9-0.3 11.8 0 23.6-0.1c0.5 0.3 0.9 0.5 1.4 0.5 1.2 0.2 2.5-0.2 3.7 0.2 22.5 3.3 43.5 10.6 61.9 24.4 3.4 2.6 6.8 5.2 10.1 7.8 13.1 13 23.9 27.6 31.4 44.6 23.2 52.7 11.7 116.4-29 156.1zm-81.3 18.2c0.8-3.7 1.7-7.4 2.3-11.2 3.4-21.1 15.6-38.2 25.3-56.5 5-9.6 10.8-18.7 19.3-25.8 1.5-1.2 2-2.9 2.6-4.7 5-15.7 8.1-31.8 9.4-48.2 0.1-1-0.1-2.2 0.4-3 6.9-11.5 11.2-25 23.6-32.7q-1.2-1.9-2.4-3.8c-3.5-0.6-7-1.5-10.6-1.8-3-0.2-3.2-1.3-2-3.6 1.1-2.2 2-4.4 3.1-6.7-0.4-0.5-0.8-1.1-1.2-1.6-41.9-47.5-123.4-45.7-163.9 3.9-25.3 30.9-32.2 66.4-24.9 105.1 10.8 56.9 61.4 95.3 119 90.6z"/><path class="b" d="m298.1 763c-4.6 0-9.3-0.3-13.9 0.1-4.1 0.3-5.3-0.8-5.3-5.1 0.2-30.1 0-60.3 0.2-90.5 0.1-5.2-1.3-9.3-4.3-13.5-19.5-27.2-38.7-54.6-58.1-81.8-16.7-23.6-33.4-47.1-50.6-71.2 8.1 0 15.7 0.1 23.3-0.1 2.2 0 2.8 1.5 3.7 2.7q24.4 35.1 48.8 70.1c15.5 22.3 31 44.6 46.8 67.3 3.1-4.1 6.3-8.1 9.2-12.3 23.6-34.4 47.4-68.6 71.7-102.5 5.3-7.4 10.2-15 15.3-22.5 1-1.3 1.7-2.8 4.1-2.8 7 0.3 14 0.1 21.7 0.1-7 10-13.7 19.5-20.4 29q-24.2 34-48.4 68.1c-13.7 19.1-27.4 38.3-41 57.5-0.8 1.1-1.2 2.3-1.8 3.4-1 1.7-0.5 3.6-0.5 5.4-0.1 31.1-0.1 62.1-0.1 93.2 0 1.8 0.4 3.6-0.4 5.4z"/><path class="b" d="m0.1 762.9c0-85.7 0-171.5-0.1-257.3 0-3.5 0.6-5 4.5-4.7 4.8 0.5 11.3-1.6 14 0.8 3.2 2.8 1 9.4 1.1 14.4 0 74.4 0 148.9-0.1 223.3 0 4.5 1 5.7 5.6 5.7 49.3-0.2 98.6-0.1 147.9-0.1 1.2 5.2 0.2 10.6 0.5 15.9 0.2 1.9-0.8 2.7-2.6 2.6-1-0.1-2 0-3 0q-81.5 0-162.9-0.1c-1.7 0-3.4 0.5-4.9-0.5z"/><path class="c" d="m1513.8 439.9c-0.7 6.6-0.7 13.3-2.2 19.7-1 4.3-4.7 7.5-8.4 10.2-8.7 6.5-9.4 8.4-6.1 18.2 1.4 4.2 1.8 8.3 0.8 12.6-0.9 3.9-3.9 4.9-7.2 2.8-5.6-3.6-11.9-5.2-18.2-3-19 6.8-38.3 12.7-57.8 18.3-2.4 0.7-4.7 1-7.2 0.3-6.2-1.7-12.7-2.4-18.6-5-4-0.9-7.9-0.7-11.9-0.1-6.7-1.8-13.4-3.8-20.2-5-3.4-0.6-8.3-2-8-5.2 0.2-2.7 5.4-2.8 8.8-2.7 12.9 0.1 25.8 1.6 38.2 5.3 9.5 2.8 18.6 0.2 27.9-0.7 13.6-1.4 24.6-9.6 36.8-14.6 16.9-6.9 29-21 44.9-29.3 1.2-0.6 2.2-1.5 2.4-3q1.1-6.9 2.2-13.7c0.7-4 0.6-7.9 0-11.9 1.6-13.9-4.8-24.3-15.5-32.1-8.7-6.4-17.8-12.2-23.8-21.6-3.6-5.7-2.5-10.5 3.2-12 1.8-0.4 2.9 0 4 1.1 1.1 1.1 2.1 2.2 3.2 3.2 4.7 4 9.1 4.3 14.1 1.1 3.1-2 6-4.3 9.3-5.8 13.2-5.8 13.2-5.7 26.8 0.7 3.9 1.9 7.9 4.6 12.6 2.2 3.8 2.6 4.3 5.8 3 10.2-3.3 11.2-11.6 18.9-18.3 27.7-1.9 2.5-4 4.9-6 7.3-5 3.3-7.4 8.3-8.8 14-0.8 3.6-0.6 7.2 0 10.8z"/><path class="c" d="m1349.9 543c0.1 2.4 1.9 3.3 3.6 4.3 9 5.1 18 10 26.7 15.5 5 3.2 9.9 6.9 14 11.2 6.6 7 15.3 9.7 23.8 12.9 1.7 0.6 3.6 0.9 4 3.1q0.1 3 0.1 6c0.8 2.1-0.2 4.3 0.7 6.3 0.1 12.7-2.6 24.6-9.1 35.6-10.1-19-24.3-35.2-35.3-53.6-3.5-6-9.1-10.2-13.8-15-6.4-6.5-13.1-12.9-19.6-19.3 0-3.5 1.5-5.9 4.9-7z"/><path class="b" d="m0.1 762.9c1.3 0.1 2.6 0.2 4 0.2 54.7 0 109.4 0 164.2 0.1 3.7 0 5.4-0.6 5-4.8-0.4-4.4-0.2-8.9-0.3-13.4 2.3 5.6 0.6 11.4 0.9 17.1 0.1 1.5-1.2 1.8-2.4 1.9q-1.8 0-3.5 0-81.2 0-162.3-0.1c-1.9 0-4 0.8-5.6-1z"/><path class="b" d="m298.1 763c0.2-1.8 0.4-3.6 0.4-5.4 0-31.1 0-62.2 0-93.2 0-1.8-0.5-3.7 0.6-5.4 0 32.8 0 65.5-0.1 98.3 0 1.9 0.7 4-0.9 5.7z"/><path class="d" d="m997.3 63.1c-1.1 4-0.3 8.1-0.6 12.1-0.1 1.5 0.7 3.3-0.7 4.6 0-4.1-0.1-8.2 0-12.3 0-1.5-0.7-3.4 1.3-4.4z"/><path class="d" d="m1484.8 580c0.1-2 0.1-4 0.2-6 0.2-2.6 1.5-2.1 3-1-4.2 0.9-0.5 5.4-3.2 7z"/><path class="d" d="m1422.8 602.3c-1.1-2-0.8-4.1-0.7-6.3 1.5 2 0.6 4.2 0.7 6.3z"/><path class="d" d="m1417.8 683.2c-1.1-2-0.8-4.1-0.7-6.2 1.5 1.9 0.6 4.1 0.7 6.2z"/><path class="d" d="m562 497.7c-1.8 0.1-3.5 0.1-5.1-0.7 1.7 0.2 3.5-0.5 5.1 0.7z"/><path class="d" d="m533.3 497.1c-1.7 0.7-3.4 0.9-5.3 0.7 1.6-1.4 3.5-0.6 5.3-0.7z"/><path class="d" d="m1523.1 454c-0.1-1.8-0.4-3.6 0.7-5.2-0.1 1.7 0.7 3.6-0.7 5.2z"/><path class="d" d="m1467.8 588c0.5-1.7-0.1-3.6 1-5.2-0.1 1.8 0.8 3.7-1 5.2z"/><path class="b" d="m413.8 615c0.1 1.8 0 3.5-0.7 5.1 0.1-1.7-0.6-3.5 0.7-5.1z"/><path class="b" d="m413.1 644.8c0.7 1.6 0.8 3.4 0.7 5.2-1.3-1.6-0.6-3.5-0.7-5.2z"/><path class="d" d="m1418.1 659.9c-0.1-1.7-0.3-3.5 0.7-5.1-0.1 1.7 0.7 3.6-0.7 5.1z"/><path class="d" d="m1524.1 437q0-2.5 0-4.9 1.8 2.4 0 4.9z"/><path class="d" d="m1393.8 742.2c-1.1-1.6-0.8-3.4-0.7-5.2 1.4 1.6 0.6 3.5 0.7 5.2z"/><path class="d" d="m528.1 766.2c1.7 0 3.4 0 5 0.8-1.7-0.2-3.5 0.5-5-0.8z"/><path class="e" d="m1349.9 543q-2.5 3.5-4.9 7c-3.1 4.3-6.5 8.5-9.3 13-1.7 2.7-3 2.6-5.4 0.9-12.8-9.5-26.6-17.1-42-21.3-15.4-4.2-30.8-5.7-46.2-0.4-16.9 5.8-24.9 19.6-21.3 36.2 1.8 8.3 7.3 13.6 14.3 17.6 11.1 6.4 23.3 9.8 35.5 12.9 17.7 4.6 35.6 8.7 52.3 16.5 14.9 7 28.1 16 35.9 31.1 19 36.8 2.4 83.8-35.8 101.4-19.9 9.2-41 11.3-62.5 9.8-34.7-2.5-65.5-15.1-92.4-37.3-5-4.2-5-4.2-0.9-9.1 7.2-8.5 14.4-17 21.5-25.7 1.9-2.4 3.1-2.3 5.4-0.3 17.6 15 37.1 26.5 60.3 30.2 13.8 2.2 27.6 2.8 41.1-1.6 18.5-6 27.4-20.6 23.6-37.8-1.5-6.7-5.3-11.8-10.8-15.6-12.4-8.4-26.7-11.9-40.8-15.5-18.5-4.6-36.9-9-54.1-17.3-18.7-9-32.9-22-37.5-43.2-9.8-44.9 14-83.3 59.3-93.2 44-9.5 84.5 0.2 120.5 27.5 2.2 1.6 2.3 2.7 0.7 4.8-2.3 3-4.4 6.2-6.5 9.4z"/><path class="e" d="m1129.9 595.3c0 28.2 0.2 56.3 0 84.5-0.1 16.3-3.2 32.1-10.8 46.7-11.9 22.9-31.2 35.5-56.2 39.7-28 4.8-54.7 1.2-78.8-15-9.2-6.2-17-14-23.8-22.7-1.6-1.9-2-3.2 0.1-5.3 8.7-8.5 17.1-17.3 25.5-26.1 2.1-2.2 3.2-2.4 5.3 0.2 5.5 7 11.7 13.2 19 18.3 11.8 8 24.9 11.2 39 8.9 18.5-3 29.9-16.3 32.7-37.1 0.8-5.6 1.1-11.2 1.1-16.9-0.1-54.3 0-108.7-0.2-163 0-4.7 1.4-5.7 5.8-5.6 12.3 0.3 24.7 0.2 37 0 3.5 0 4.4 0.9 4.4 4.4-0.1 29.7-0.1 59.4-0.1 89z"/><path class="e" d="m723.8 530.9c0 3 0 4.7 0 6.5 0 73.3 0 146.6 0.1 219.9 0 4.4-0.9 6.4-5.6 5.7-4.3-0.5-9.9 1.8-12.5-0.9-2.6-2.6-0.8-8.2-0.8-12.5 0-80.8 0-161.6-0.1-242.4 0-4.7 0.9-5.8 6-6.5 10.6-1.4 16 4.1 21.8 11.6 56.1 71.1 112.4 142 168.7 213 0.6 0.8 1.2 1.4 2.6 3 0-2.9 0-4.6 0-6.4 0-71.8 0-143.6-0.2-215.4 0-4.7 1.4-6.1 5.8-5.5 4.3 0.5 9.8-1.8 12.5 1 2.5 2.6 0.7 7.9 0.7 12.1 0 80.9 0 161.9 0.1 242.9 0 4.5-0.7 6-5.8 6.2-6.6 0.2-10.8-1.9-14.9-7.2-57.6-73.1-115.5-146-173.3-219-1.4-1.7-2.9-3.4-5.1-6.1z"/><path class="c" d="m972.7 176.3c-0.8 3.9-1 6.4-1.7 8.7-4.2 12.8 0.3 24.3 4.4 36.1 3.4 9.6 9.3 17.5 15.1 25.6 2.4 3.4 6.3 5 9.8 6.7 3.4 1.7 5 4.1 5.4 7.5 1.2 10.6 5.5 19.7 12.4 27.7 1.6 1.9 4.3 4.8 1.5 6.7-2.8 2-6.5 5.4-10.7 2-10-7.9-21.1-13.7-33.4-17.2-3.3-1-5.6-3.5-8.3-5.4-1.8-1.2-1.7-3.3-0.9-5 1.7-4.1 1.1-7.2-2.4-10.4-4.7-4.3-4.5-10.7 0.3-14.8 3.8-3.3 4.1-6.3 1.5-10.2-1.3-1.8-1.6-4.4-3.1-5.7-10.4-8.8-5.1-19.7-3.9-29.8 1.1-9 6.4-15.7 14-22.5z"/><path class="c" d="m1336.5 262.4c0.1 0.5 0.1 0.7 0.1 0.9-4.8 8.8-4.7 8.5 4.9 13.2 6 3 8.9 9.1 12.4 15.3-3.9-0.2-7-0.7-9.6-2.9-2.5-2.1-5.4-3.7-8.3-5.4-3.6-2.1-7.3-3.1-11.3-1.4-5 2.1-9.8 0.6-13.8-1.9-6.9-4.3-13.8-7.9-22.3-7.1 3.1-6.8 3.6-6.5 9.7-4.6 9.4 2.9 19 2.4 28.4-0.4 2.3-0.7 2.6-3.4 4.4-4.5 1.5-0.9 3.2-1.8 5.4-1.2z"/><path class="f" d="m1510 433.1c1.3 4 1.5 7.9 0 11.9q0-6 0-11.9z"/><path class="g" d="m1377 513.9c4-1.3 7.9-1.5 11.9 0.1q-6-0.1-11.9-0.1z"/><path class="h" d="m1513.8 439.9c-1.4-3.6-1.5-7.2 0-10.8q0 5.4 0 10.8z"/><path class="i" d="m623 557.5c1.1-2.2 2-4.4 3.1-6.7 0.9 3.1-3.2 5.8-1 8.4 1.8 2.2 5.3 1.2 7.9 2.2 1 0.4 1.8 0.9 2.6 1.5-3.5-0.6-7-1.5-10.6-1.8-3-0.2-3.2-1.3-2-3.6z"/><path class="i" d="m638 566.7c-0.1 1.3-0.8 2.2-1.8 2.9-10 7.3-14.4 18.6-19.7 29.1-3.1 6-2.4 13.3-3.1 20.1-1.1 11.7-5.4 22.6-8.2 33.9-0.6 2.3-2.4 4-4.2 5.6-6.7 5.9-11.4 13.3-15.9 21-7.3 12.7-14.1 25.6-20.8 38.7-3.9 7.8-4.5 16.3-6.6 24.5-0.5 2.2-0.5 4.7-2.6 6.3 0.8-3.7 1.7-7.4 2.3-11.2 3.4-21.1 15.6-38.2 25.3-56.5 5-9.6 10.8-18.7 19.3-25.8 1.5-1.2 2-2.9 2.6-4.7 5-15.7 8.1-31.8 9.4-48.2 0.1-1-0.1-2.2 0.4-3 6.9-11.5 11.2-25 23.6-32.7z"/><path class="j" d="m618.9 721.4c-17.9 16.6-39.4 25.5-63.8 27.4 0.8-3.7 1.7-7.4 2.3-11.2 3.4-21.1 15.6-38.2 25.3-56.5 5-9.6 10.8-18.7 19.3-25.8 1.5-1.2 2-2.9 2.6-4.7 5-15.7 8.1-31.8 9.4-48.2 0.1-1-0.1-2.2 0.4-3 6.9-11.5 11.2-25 23.6-32.7 11.5 17.3 17.1 36.6 18.3 57.2 2.1 38-9.2 71.2-37.4 97.5z"/><path class="k" d="m635.6 562.9c-3.5-0.6-7-1.5-10.6-1.8-3-0.2-3.2-1.3-2-3.6 1.1-2.2 2-4.4 3.1-6.7 3.8 3.5 6.8 7.7 9.5 12.1z"/><path class="e" d="m634 529.9l-7.9 20.9c0 0 17.8 22.3 22.1 35.5 4.3 13.2 10.7 43.6 7.5 61.4-3.1 17.7-6.5 37.4-22 57.3-15.6 19.8-41.7 37.1-62 41.3-20.3 4.2-16.6 2.5-16.6 2.5l1.6 17.9c0 0 44.2 1.4 83-39.4 38.8-40.8 37.4-78.6 37.5-96.9 0.2-18.2-5.3-45.3-16.7-66-14.8-26.6-26.5-34.5-26.5-34.5z"/></svg>